<svg xmlns="http://www.w3.org/2000/svg" width="51" height="51" viewBox="0 0 612 612"><path d="M600.388 112.114c-7.714-7.876-17.246-11.938-28.525-11.938H420.269V50.088c0-10.282-7.954-18.576-18.243-18.576H209.967a18.547 18.547 0 0 0-18.576 18.576v50.087H40.131c-11.273 0-20.812 4.062-28.525 11.938C4.062 119.827 0 129.366 0 140.313V540.35c0 10.948 3.892 20.649 11.605 28.526 7.551 7.713 17.252 11.612 28.525 11.612h531.731c11.279 0 20.981-3.899 28.525-11.612C608.101 560.999 612 551.298 612 540.35V140.313c0-10.947-4.062-20.486-11.612-28.199zM228.211 68.331h155.57v31.844h-155.57V68.331zm346.97 472.019c0 2.321-.998 3.319-3.318 3.319H40.131c-1.656 0-3.644-1.988-3.644-3.319V270.67h222.246v8.959c0 10.282 7.961 18.243 18.243 18.243h57.716c10.282 0 18.576-7.961 18.576-18.243v-8.959h221.913v269.68zm0-306.166H36.487v-93.87c0-2.321 1.323-3.319 3.644-3.319h531.731c2.32 0 3.318.998 3.318 3.319v93.87z"/></svg>