<svg xmlns="http://www.w3.org/2000/svg" width="51" height="51" viewBox="0 0 512 512"><path d="M448 0H64C46.328 0 32 14.313 32 32v448c0 17.688 14.328 32 32 32h288l128-128V32c0-17.687-14.312-32-32-32zm-96 466.75V384h82.75L352 466.75zM448 352h-96c-17.688 0-32 14.313-32 32v96H64V32h384v320zM96 112c0-8.844 7.156-16 16-16h288c8.844 0 16 7.156 16 16s-7.156 16-16 16H112c-8.844 0-16-7.156-16-16zm0 96c0-8.844 7.156-16 16-16h288c8.844 0 16 7.156 16 16s-7.156 16-16 16H112c-8.844 0-16-7.156-16-16zm0 96c0-8.844 7.156-16 16-16h288c8.844 0 16 7.156 16 16s-7.156 16-16 16H112c-8.844 0-16-7.156-16-16z"/></svg>