<svg xmlns="http://www.w3.org/2000/svg" width="51" height="51" viewBox="0 0 952.021 952.02"><path d="M929.561 231.135c-14.5-35.7-35.301-67.7-61.7-95.2-26.4-27.5-57.2-49.1-91.5-64.2-35.5-15.7-73.2-23.6-112.101-23.6-69.199 0-135.899 25.8-188.1 72.8-52.3-47-118.9-72.8-188.1-72.8-38.9 0-76.601 7.9-112.101 23.6-34.3 15.1-65.1 36.7-91.5 64.2-26.4 27.5-47.2 59.5-61.7 95.2-15 36.8-22.6 75.8-22.7 115.9-.1 1.9-.1 6 .2 11.9 1.6 46.101 13 90 33.8 130.4 28.3 65.2 72.1 129.2 130.1 190.399 74.9 79 173.4 152.7 292.6 219l.301.2a38.934 38.934 0 0 0 38 0l.3-.2c41-22.8 79.6-46.5 115.5-70.899v-39.9h-65.2c-44.1 0-80-35.899-80-80v-33.399c0-44.101 35.9-80 80-80h65.2v-65.2c0-44.101 35.899-80 80-80h33.399c44.101 0 80 35.899 80 80v65.2h53.9c24.4-34.5 44.4-69.7 59.8-105.2 20.8-40.4 32.2-84.3 33.8-130.3.301-5.9.301-10 .2-11.8.201-40.301-7.398-79.301-22.398-116.101z"/><path d="M724.36 479.235h-33.4c-27.6 0-50 22.4-50 50v95.2h-95.2c-27.6 0-50 22.4-50 50v33.4c0 27.6 22.4 50 50 50h95.2v95.299c0 27.6 22.4 50 50 50h33.4c27.6 0 50-22.4 50-50v-95.2h95.2c27.6 0 50-22.399 50-50v-33.399c0-27.601-22.4-50-50-50h-95.2v-95.2c0-27.7-22.4-50.1-50-50.1z"/></svg>