<svg xmlns="http://www.w3.org/2000/svg" width="51" height="51" viewBox="-1 -1 574.159 585.87"><path d="M251.661 512.593c0 13.24-11.116 23.971-24.827 23.971-13.712 0-24.828-10.732-24.828-23.97 0-13.24 11.116-23.972 24.828-23.972 13.711 0 24.827 10.732 24.827 23.971zm-119-371.556c0 13.24-11.116 23.972-24.828 23.972s-24.828-10.733-24.828-23.972 11.116-23.971 24.828-23.971 24.827 10.732 24.827 23.971zm424.635 81.332c0 13.239-11.116 23.97-24.828 23.97s-24.827-10.731-24.827-23.97c0-13.24 11.115-23.972 24.827-23.972 13.712 0 24.828 10.733 24.828 23.972zM277.546 582.92c-16.72-4.875-32.646-20.964-45.39-45.851-4.884-9.539-5.824-10.753-8.344-10.772-4.4-.034-11.73-3.439-14.254-6.62-5.788-7.298-4.243-16.293 2.076-22.753 1.813-1.853 2.096-4.128 2.096-5.056 0-.928-1.22-6.043-2.71-11.368-3.24-11.567-9.185-38.591-10.207-46.397-.401-3.064-1.064-6.058-1.474-6.653-.49-.712-6.237.787-16.849 4.398-30.336 10.32-61.8 18.295-91.299 23.138-13.686 2.248-48.854 2.511-57.876.434C12.59 450.65 1.37 440.204.118 424.515c-.692-8.678 1.608-16.892 8.174-29.195 8.671-16.247 18.85-29.164 37.908-48.112 15.574-15.483 46.626-41.23 63.822-52.918l3.721-2.53-5.427-3.935C37.678 236.601-2.043 189.612.089 159.795c1.794-25.097 30.172-36.241 79.915-31.383 11.12 1.086 11.197 1.078 14.497-1.414 10.062-7.6 24.944-5 31.386 5.483 2.252 3.665 3.418 4.464 8.194 5.619 9.201 2.224 35.86 10.144 50.426 14.981 7.516 2.496 13.923 4.307 14.237 4.025.314-.282 1.57-5.862 2.792-12.4 12.36-66.157 32.906-114.09 57.616-134.415 12.652-10.408 27.116-13.046 40.267-7.344 12.21 5.292 26.592 20.883 37.706 40.873 7.872 14.16 18.551 43.422 25.18 69 3.424 13.207 8.498 37.696 8.498 41.007 0 1.306.496 2.65 1.102 2.986.606.336 8.501-1.848 17.545-4.854 80.635-26.8 145.95-31.832 171.285-13.196 16.673 12.265 14.995 36.835-4.372 64.013-3.308 4.642-4 6.392-3.336 8.45.46 1.426.88 5.78.932 9.674.086 6.337-.242 7.478-3.125 10.869-4.555 5.357-11.604 7.966-19.323 7.152-5.75-.607-6.168-.492-9.01 2.477-5.321 5.559-34.865 30.004-48.616 40.227-7.373 5.481-13.405 10.356-13.405 10.834 0 .477 3.76 3.615 8.355 6.973 13.366 9.766 35.753 28.175 45.868 37.717 46.534 43.895 64.749 78.69 52.735 100.733-11.74 21.538-52.492 25.31-116.984 10.828-16.442-3.692-55.558-15.134-69.549-20.344-4.553-1.695-8.637-2.737-9.075-2.314-.438.422-1.898 6.843-3.244 14.268-11.719 64.642-31.448 111.738-55.354 132.134-3.632 3.098-9.123 6.78-12.204 8.181-7 3.184-17.046 4.162-23.481 2.286zm14.998-13.12c26.878-7.164 49.879-55.177 63.209-131.942 1.524-8.78 2.4-16.286 1.948-16.681-.452-.396-8.091-3.472-16.975-6.834-8.885-3.363-24.778-10.12-35.318-15.017l-19.165-8.904-18.154 8.332c-15.4 7.067-32.56 14.07-51.295 20.933-3.641 1.333-4.177 1.954-4.173 4.83.006 4.57 2.707 19.182 7.264 39.302 5.755 25.408 5.868 25.682 11.369 27.506 6.026 1.998 9.511 4.26 12.214 9.658 2.775 5.542 2.594 12.259-1.808 18.228-3.67 4.977-3.776 4.534 4.652 19.608 10.145 18.148 20.633 28.136 33.144 31.565 4.3 1.178 6.917 1.062 13.088-.583zm240.149-124.543c8.356-1.475 17.442-5.929 20.94-10.264 4.523-5.605 5.78-9.983 5.183-18.06-1.235-16.717-16.734-38.97-46.816-67.215-17.623-16.548-61.14-49.736-64.336-49.066-.922.193-8.692 5.08-17.267 10.858-8.575 5.78-23.138 15.04-32.362 20.58l-16.77 10.073-1.343 19.094c-.739 10.502-2.374 26.333-3.633 35.18-1.26 8.845-2.062 16.288-1.783 16.539 1.295 1.163 30.002 11.023 47.541 16.329 48.606 14.704 86.654 20.19 110.646 15.953zm-450.773-.966c28.224-3.33 65.455-12.7 103.443-26.032 8.369-2.937 11.654-4.564 11.644-5.766-.006-.92-.99-8.708-2.185-17.306-1.195-8.597-2.779-24.626-3.52-35.619l-1.346-19.986-6.215-3.292c-10.838-5.741-35.905-21.034-46.938-28.636-5.854-4.034-11.046-7.335-11.536-7.335-1.203 0-7.45 4.401-24.05 16.942-17.148 12.956-43.024 35.526-54.525 47.558-39.826 41.665-42.975 71.38-8.36 78.894 7.933 1.722 31.267 2.032 43.588.578zm149.387-43.093c8.408-3.337 20.69-8.585 27.296-11.662l12.01-5.594-10.896-5.094c-13.487-6.306-32.94-16.362-42.964-22.21-11.59-6.761-10.823-7.14-10.801 5.324.02 10.946 1.087 22.864 3.422 38.187 1.517 9.953-.278 9.867 21.933 1.05zm129.964 1.87c4.035-27.14 6.023-51.75 4.18-51.75-.66 0-1.49.421-1.843.935-1.047 1.52-34.629 19.149-48.77 25.6-7.191 3.281-13.081 6.231-13.089 6.556-.034 1.508 53.217 23.854 56.935 23.892 1.341.013 2.007-1.334 2.587-5.232zm-55.683-35.907c18.212-8.785 43.164-21.974 55.631-29.405l5.905-3.52.726-12.115c.896-14.96.719-66.265-.242-70.14-.589-2.377-3.766-4.535-19.502-13.25-10.338-5.727-18.928-10.412-19.088-10.412-.16 0-5.988-2.85-12.951-6.334-23.35-11.681-27.62-13.666-29.398-13.666-4.186 0-58.16 27.04-77.596 38.874-4.83 2.94-5.269 3.563-5.948 8.442-1.337 9.602-.13 75.935 1.426 78.381 1.24 1.95 21.193 13.717 35.648 21.023 20.29 10.255 43.419 21.232 44.78 21.254.894.014 10.168-4.095 20.61-9.132zm-30.138-46.606c-19.667-6.322-28.88-26.596-19.529-42.969 4.366-7.644 11.403-12.568 21.17-14.814 8.54-1.964 13.9-1.352 23.19 2.647 19.605 8.44 24.91 32.378 10.451 47.16-7.875 8.053-23.828 11.659-35.282 7.976zm-87.341-28.795c0-26.563-.29-33.41-1.393-32.841-8.718 4.493-50.408 32.081-50.408 33.357 0 .449 3.22 3.005 7.156 5.68 9.45 6.423 42.743 27.144 43.81 27.267.459.053.835-15.006.835-33.463zm217.89 19.809c12.031-7.563 23.697-15.208 25.924-16.99 3.968-3.174 4.004-3.27 1.82-4.792-18.88-13.162-47.768-31.468-49.658-31.468-.533 0-1.108 15.075-1.277 33.5-.17 18.426.058 33.5.505 33.5s10.656-6.188 22.687-13.75zm-253.724-45.457c13.411-8.638 27.414-17.401 31.117-19.472l6.733-3.766.71-11.027c1.045-16.238 2.713-32.47 4.73-46.028 2.68-18.01 3.276-16.172-6.342-19.585-10.852-3.85-45.239-14.153-54.775-16.41l-7.43-1.758-3.438 3.515c-6.8 6.952-17.425 8.795-25.94 4.499-4.465-2.252-8.915-7.885-10.213-12.926-.646-2.51-1.172-2.705-9.05-3.368-14.397-1.21-35.852-.024-43.32 2.395-35.7 11.569-24.98 46.354 29.346 95.219 10.138 9.12 25.953 22.183 35.143 29.03 24.516 18.266 24.141 18.03 26.415 16.602 1.06-.667 12.902-8.281 26.314-16.92zm308.153 8.644c17.113-12.281 27.14-20.235 42.67-33.849l12.541-10.992-.7-4.744c-.998-6.747.273-12.562 4.246-16.623 4.607-4.71 8.949-6.629 15.74-6.171l5.762.388 5.266-6.973c11.756-15.57 16.058-31.885 10.97-41.596-2.958-5.643-5.654-7.986-12.894-11.202-17.95-7.975-54.352-6.169-99.145 4.92-19.437 4.812-68.41 19.981-70.466 21.827-.33.296.49 8.535 1.821 18.308 2.244 16.462 4.535 41.752 4.574 50.485.016 3.563.416 3.95 9.764 9.443 16.221 9.532 37.076 22.86 46.509 29.723 4.901 3.566 9.162 6.513 9.469 6.549.306.035 6.55-4.237 13.873-9.493zm-94.08-46.792c0-12.41-4.761-52.645-6.23-52.645-1.71 0-57.268 24.225-57.268 24.97 0 .298 2.606 1.615 5.792 2.927 8.725 3.593 41.747 20.745 49.35 25.633 3.677 2.364 7.06 4.336 7.52 4.384.46.047.835-2.324.835-5.269zm-156.131 2.51c7.324-4.568 38.568-21.037 48.887-25.768l11.396-5.225-6.94-3.425c-14.58-7.193-49.592-21.033-51.526-20.367-1.566.54-2.119 3.555-4.335 23.63-3.826 34.672-3.792 35.091 2.518 31.156zm86.805-43.022c10.303-4.625 41.026-17.087 55.4-22.472 7.931-2.97 7.721-.782 2.66-27.661-10.149-53.909-26.2-94.638-44.158-112.05-8.972-8.698-15.705-11.936-24.784-11.918-7.932.015-14.183 2.604-20.935 8.668-20.937 18.805-38.231 61.36-49.093 120.8-3.122 17.085-3.255 18.438-1.913 19.402.661.475 9.223 4.025 19.026 7.889 9.803 3.864 25.594 10.404 35.091 14.534 9.497 4.13 17.401 7.547 17.566 7.592.164.046 5.177-2.107 11.14-4.784z"/></svg>