<svg xmlns="http://www.w3.org/2000/svg" width="51" height="51" viewBox="0 0 952.1 952.1"><path d="M812.55 139.4c-43.7-43.7-94.6-78-151.3-102-58.7-24.8-121-37.4-185.3-37.4-64.2.1-126.5 12.6-185.2 37.5-56.7 24-107.6 58.3-151.3 102-43.7 43.7-78 94.6-102 151.3-24.8 58.7-37.4 121-37.4 185.3 0 64.201 12.6 126.6 37.4 185.301 24 56.699 58.3 107.6 102 151.299 43.7 43.701 94.6 78 151.3 102 58.7 24.801 121 37.4 185.3 37.4 64.2 0 126.601-12.6 185.3-37.4 56.7-24 107.601-58.299 151.301-102 43.699-43.699 78-94.6 102-151.299 24.8-58.701 37.399-121 37.399-185.301 0-64.2-12.6-126.6-37.399-185.3C890.55 234 856.25 183.2 812.55 139.4zm-600-31.9c4.3-3.3 8.5-6.8 12.9-9.9 23.1-16.2 48.7-29.3 74.7-40.2 55.4-23.2 115.6-35.4 175.8-35.4 40.1 0 81.2 5.4 119.899 16-15.3 6.2-34 18-65.399 44.8-26.101-2.8-52.5-2.9-79-.4-34.601 3.3-69.4 11-103.4 23-30.7 10.8-55 23.1-71.4 32.5-25.1-9-57.5-19.6-73.5-24.8 2.5.8 7.7-4.3 9.4-5.6zm433.6 119l-81.4 222.2-195.3 37.5-161.4-166.7c10.9-75.6 62.7-142.6 62.7-142.6.3-.2 34.1-24.6 88.3-43.5 31.601-11.1 63.8-18.2 95.9-21.2 26.2-2.4 52.3-2 78.1 1.1l113.1 113.2zM39.35 460.2c-5 32.3-6.1 65.8-3.5 99.5-3.9-7.799-7-14.398-9.3-19.699-3-20.9-4.5-42.301-4.5-64.1 0-67 14.5-130.7 40.6-188-2.9 30-1.5 61.1.6 84.7C52.05 400.7 44.05 430 39.35 460.2zm39.5 173.101c-4.6-16.9-10-41.5-12.7-71-3-33.301-2.1-66.4 2.9-98.101 3.8-24.3 9.9-47.899 18.3-70.6 32.9-27.8 76.5-44.1 100.6-51.6l158.4 163.6-16.6 179.3-154.8 51.7c-39.4-29-71.6-67.401-96.1-103.299zM549.25 892.9c-34.5 22.6-121.7 28-157.1 29.299-39-7.299-76.9-19.799-112.601-37-31.2-15-60.8-33.6-87.8-55.398.5-.9-4.2-48.602-4-66l156.4-52.201 180.5 78.1 24.899 102.9c-.198.201-.298.3-.298.3zm299.9-158.3c-26.9 38.8-59.1 74.9-97.8 102.3-36.3 25.6-84.899 34.4-128.1 41.5-3.3.5-44.6 7.299-44.9 5.9l-24.899-103L680.55 649l168.3-15.5c2.601 26.801 6 65.9 8 89.801-2.6 3.799-5.1 7.599-7.7 11.299zm2.6-134.6c-.6 1-1.2 2.1-1.8 3.301l-167.6 15.398-90.2-157.799 81.6-222.7 115.2 7.3c24.5 20.5 46.2 43.3 64.6 67.9 23 30.9 40.9 64.8 53.101 100.7C893.85 525.301 864.35 580.699 851.75 600zm60.1-250.2c-9.899-19.1-21.5-37.5-34.6-55-20.7-27.7-45.3-53.2-73.2-75.9-5.1-25.3-19.1-65.1-56.7-106.9.7.5 1.4 1.1 2.101 1.6 2.3 1.7 4.5 3.5 6.8 5.2 25.9 20.4 49.5 43.5 70.4 68.9 38.8 47.3 68.1 102.2 85.3 161.1-.101.4-.101.7-.101 1z"/></svg>