<svg xmlns="http://www.w3.org/2000/svg" viewBox="0 0 512 512"><path d="M416 32H272c0 8.836-7.164 16-16 16s-16-7.164-16-16H96c-22.055 0-40 17.945-40 40v400c0 22.055 17.945 40 40 40h320c22.055 0 40-17.945 40-40V72c0-22.055-17.946-40-40-40zm0 432a8 8 0 0 1-8 8H104a8 8 0 0 1-8-8V80a8 8 0 0 1 8-8h304a8 8 0 0 1 8 8v384z" fill="#9f6459"/><path d="M152 368a7.948 7.948 0 0 1-5.312-2.023 7.989 7.989 0 0 1-.664-11.289l64-72a7.99 7.99 0 0 1 9.289-1.969l80.445 36.57 52.844-128.336c1.688-4.078 6.359-6 10.445-4.352 4.086 1.68 6.031 6.359 4.352 10.445l-56 136c-.828 2.008-2.438 3.594-4.453 4.391s-4.273.742-6.258-.156l-82.625-37.555-60.086 67.586A7.96 7.96 0 0 1 152 368z" fill="#d8dce1"/><circle cx="152" cy="360" r="24" fill="#ff4f19"/><circle cx="216" cy="288" r="24" fill="#ff9600"/><circle cx="304" cy="328" r="24" fill="#ffd200"/><circle cx="360" cy="192" r="24" fill="#74d24f"/><path d="M304 16h-20.391C277.969 6.242 267.484 0 256 0s-21.969 6.242-27.609 16H208c-22.055 0-40 17.945-40 40v32c0 4.418 3.578 8 8 8h160c4.422 0 8-3.582 8-8V56c0-22.055-17.945-40-40-40zm-48 24a8 8 0 1 1 0-16 8 8 0 0 1 0 16z" fill="#b9bbc1"/></svg>