<svg xmlns="http://www.w3.org/2000/svg" viewBox="0 0 512.002 512.002"><path d="M317.024 306.849a8.003 8.003 0 0 1 6.109-6.965 8.017 8.017 0 0 1 8.594 3.469l49.016 76.629a71.85 71.85 0 0 1 11.258 38.656v85.363a7.997 7.997 0 0 1-8 8 8.009 8.009 0 0 1-6.195-2.934l-70.32-85.949a8.048 8.048 0 0 1-1.766-5.883l11.304-110.386z" fill="#ff4f19"/><path d="M194.977 306.849a8.003 8.003 0 0 0-6.109-6.965 8.017 8.017 0 0 0-8.594 3.469l-49.016 76.629A71.85 71.85 0 0 0 120 418.638v85.363a7.997 7.997 0 0 0 8 8 8.009 8.009 0 0 0 6.195-2.934l70.32-85.949a8.048 8.048 0 0 0 1.766-5.883l-11.304-110.386z" fill="#e9001e"/><path d="M260.118 1.143a7.99 7.99 0 0 0-8.234 0c-3.422 2.055-83.883 51.562-83.883 158.859 0 43.324 10.766 158.594 25.047 268.125 2.07 15.891 15.703 27.875 31.695 27.875h62.516c15.992 0 29.625-11.984 31.695-27.875 14.281-109.531 25.047-224.801 25.047-268.125 0-107.297-80.461-156.805-83.883-158.859z" fill="#ffd200"/><path d="M256.001 456.002h-31.258c-15.992 0-29.625-11.984-31.695-27.875-14.281-109.531-25.047-224.801-25.047-268.125 0-107.297 80.461-156.805 83.883-158.859a7.983 7.983 0 0 1 4.103-1.141h.015v456z" fill="#ff9600"/><circle cx="256.001" cy="168.002" r="48" fill="#53dcff"/><path d="M256.001 512.002c-4.422 0-8-3.582-8-8v-192c0-4.418 3.578-8 8-8s8 3.582 8 8v192c0 4.418-3.578 8-8 8zM251.884 1.143c-2.288 1.374-38.98 23.989-63.071 70.859h134.376c-24.091-46.87-60.783-69.486-63.071-70.859a7.986 7.986 0 0 0-8.234 0z" fill="#ff4f19"/><path d="M256.001 0a7.974 7.974 0 0 0-4.117 1.143c-2.288 1.374-38.98 23.989-63.071 70.859h67.188V0z" fill="#e9001e"/><path d="M304.001 168.002c0-26.51-21.49-48-48-48v96c26.51 0 48-21.49 48-48z" fill="#b3f4ff"/><path d="M256.001 224.002c-30.875 0-56-25.121-56-56s25.125-56 56-56 56 25.121 56 56-25.125 56-56 56zm0-96c-22.055 0-40 17.945-40 40s17.945 40 40 40 40-17.945 40-40-17.945-40-40-40z" fill="#5c546a"/></svg>