<svg xmlns="http://www.w3.org/2000/svg" viewBox="0 0 512 512"><path d="M0 134v328c0 22.055 17.945 40 40 40h432c22.055 0 40-17.945 40-40V134H0z" fill="#d8dce1"/><path d="M472 22H40C17.945 22 0 39.945 0 62v72h512V62c0-22.055-17.946-40-40-40zM64 102c-13.255 0-24-10.745-24-24s10.745-24 24-24 24 10.745 24 24-10.745 24-24 24zm384 0c-13.255 0-24-10.745-24-24s10.745-24 24-24 24 10.745 24 24-10.745 24-24 24z" fill="#ff4f19"/><path d="M256 206c-17.648 0-32 14.352-32 32s14.352 32 32 32 32-14.352 32-32-14.352-32-32-32zM176 206c-17.648 0-32 14.352-32 32s14.352 32 32 32 32-14.352 32-32-14.352-32-32-32zM96 206c-17.648 0-32 14.352-32 32s14.352 32 32 32 32-14.352 32-32-14.352-32-32-32zM336 206c-17.648 0-32 14.352-32 32s14.352 32 32 32 32-14.352 32-32-14.352-32-32-32zM416 270c17.648 0 32-14.352 32-32s-14.352-32-32-32-32 14.352-32 32 14.351 32 32 32zM256 286c-17.648 0-32 14.352-32 32s14.352 32 32 32 32-14.352 32-32-14.352-32-32-32zM176 286c-17.648 0-32 14.352-32 32s14.352 32 32 32 32-14.352 32-32-14.352-32-32-32zM96 286c-17.648 0-32 14.352-32 32s14.352 32 32 32 32-14.352 32-32-14.352-32-32-32zM336 286c-17.648 0-32 14.352-32 32s14.352 32 32 32 32-14.352 32-32-14.352-32-32-32zM416 286c-17.648 0-32 14.352-32 32s14.352 32 32 32 32-14.352 32-32-14.352-32-32-32zM256 366c-17.648 0-32 14.352-32 32s14.352 32 32 32 32-14.352 32-32c0-17.649-14.352-32-32-32zM176 366c-17.648 0-32 14.352-32 32s14.352 32 32 32 32-14.352 32-32c0-17.649-14.352-32-32-32zM96 366c-17.648 0-32 14.352-32 32s14.352 32 32 32 32-14.352 32-32c0-17.649-14.352-32-32-32zM336 366c-17.648 0-32 14.352-32 32s14.352 32 32 32 32-14.352 32-32c0-17.649-14.352-32-32-32zM416 366c-17.648 0-32 14.352-32 32s14.352 32 32 32 32-14.352 32-32c0-17.649-14.352-32-32-32z" fill="#fff"/><g><path d="M64 90c-6.625 0-12-5.371-12-12V22c0-6.629 5.375-12 12-12s12 5.371 12 12v56c0 6.629-5.375 12-12 12z" fill="#5c546a"/></g><g><path d="M448 90c-6.625 0-12-5.371-12-12V22c0-6.629 5.375-12 12-12s12 5.371 12 12v56c0 6.629-5.375 12-12 12z" fill="#5c546a"/></g><g><circle cx="96" cy="238" r="32" fill="#ffd200"/></g><g><circle cx="256" cy="398" r="32" fill="#ff9600"/></g><g><circle cx="336" cy="318" r="32" fill="#ff4f19"/></g></svg>