<svg xmlns="http://www.w3.org/2000/svg" viewBox="0 0 512.004 512.004"><path d="M314.35 408.004c-4.414 0-8-3.59-8-8s3.586-8 8-8c4.422 0 8-3.582 8-8s-3.578-8-8-8h-128c-4.422 0-8 3.582-8 8s3.578 8 8 8c4.414 0 8 3.59 8 8s-3.586 8-8 8c-4.422 0-8 3.582-8 8s3.578 8 8 8h128c4.422 0 8-3.582 8-8s-3.578-8-8-8z" fill="#5c546a"/><path d="M413.374 196.004c0-2.395.93-4.641 2.625-6.336 7.539-7.535 7.539-19.793 0-27.328l-95.141-95.144c6.055-9.934 14.086-31.086.859-62.312a8.012 8.012 0 0 0-6.492-4.832c-2.852-.328-5.703.949-7.383 3.305-11.539 16.148-34.695 30.871-61.508 47.918-62.367 39.648-139.984 88.992-139.984 196.73 0 90.687 48.359 130.07 63.187 139.984a23.912 23.912 0 0 0 13.312 4.016h138.633c8.32 0 15.93-4.215 20.352-11.281l15.68-25.09c13.477-21.559 10.719-49.547-6.703-68.066l-84.453-89.723c8.672 1.238 19.359 2.16 31.992 2.16 30.273 0 44.43 15.617 56.914 29.398 4.219 4.652 8.203 9.051 12.531 12.449 6.383 5.008 15.531 4.48 21.25-1.227l26.953-26.973a8.001 8.001 0 0 0 0-11.316 8.882 8.882 0 0 1-2.624-6.332z" fill="#ffd200"/><path d="M186.351 216.004c0-124 109.277-123.334 127.984-215.933-2.541.003-4.989 1.177-6.492 3.285-11.539 16.148-34.695 30.871-61.508 47.918-62.367 39.648-139.984 88.992-139.984 196.73 0 90.687 48.359 130.07 63.187 139.984a23.912 23.912 0 0 0 13.312 4.016h91.5c0-95.333-87.999-93.611-87.999-176z" fill="#ff9600"/><path d="M401.718 445.062l-42.242-35.203a7.999 7.999 0 0 0-5.125-1.855h-208a7.997 7.997 0 0 0-5.125 1.855l-42.234 35.199a23.936 23.936 0 0 0-8.641 18.441v40.504c0 4.418 3.578 8 8 8h304c4.422 0 8-3.582 8-8v-40.508a23.937 23.937 0 0 0-8.633-18.433z" fill="#b9bbc1"/><path d="M266.35 128.004c-4.422 0-8-3.582-8-8s3.578-8 8-8c3.977 0 7.984-2.199 12.633-4.746 9.133-5.012 21.648-11.859 39.195-2.277a7.998 7.998 0 0 1 3.195 10.855c-2.117 3.875-7 5.309-10.852 3.191-9.898-5.395-15.445-2.344-23.852 2.266-5.74 3.145-12.248 6.711-20.319 6.711z" fill="#ff9600"/><path d="M298.35 128.004c-4.422 0-8-3.582-8-8v-8c0-4.418 3.578-8 8-8s8 3.582 8 8v8c0 4.418-3.578 8-8 8z" fill="#ff9600"/><path d="M250.351 408.004h-104a7.997 7.997 0 0 0-5.125 1.855l-42.234 35.199a23.936 23.936 0 0 0-8.641 18.441v40.504c0 4.418 3.578 8 8 8h152V408.004z" fill="#8b8996"/><path d="M90.351 463.5v40.504c0 4.418 3.578 8 8 8h304c4.422 0 8-3.582 8-8v-40.508c0-2.598-.549-5.09-1.342-7.492H91.694c-.795 2.404-1.343 4.897-1.343 7.496z" fill="#8b8996"/><path d="M250.351 456.004H91.694c-.794 2.404-1.343 4.897-1.343 7.496v40.504c0 4.418 3.578 8 8 8h152v-56z" fill="#5c546a"/><path d="M266.358 197.844c1.546.221 3.233.416 4.907.613-25.263-4.967-38.903-18.777-46.063-30.266-10.203-16.367-11.453-35.137-7.422-45.215 1.641-4.105-.359-8.758-4.461-10.402-4.07-1.633-8.758.355-10.398 4.457-6.648 16.637-3.156 40.594 8.703 59.621 14.352 23.023 39.25 36.988 70.125 39.328.203.016.406.023.609.023.325 0 .61-.139.926-.178l-16.926-17.981z" fill="#ff9600"/></svg>