<svg xmlns="http://www.w3.org/2000/svg" viewBox="0 0 42 42"><circle cx="21" cy="21" r="21" fill="#fbd971"/><circle cx="12" cy="15" r="6" fill="#fff"/><circle cx="30" cy="15" r="6" fill="#fff"/><path d="M18.387 34.993c-1.981 0-3.953-.38-5.771-1.138a1 1 0 1 1 .77-1.846c3.052 1.271 6.606 1.313 9.753.116 3.217-1.224 5.682-3.561 6.939-6.578a1 1 0 0 1 1.846.77c-1.47 3.529-4.338 6.257-8.073 7.678a15.4 15.4 0 0 1-5.464.998z" fill="#f0c419"/><circle cx="12" cy="15" r="3" fill="#af8066"/><circle cx="30" cy="15" r="3" fill="#af8066"/></svg>