<svg xmlns="http://www.w3.org/2000/svg" viewBox="0 0 484 484" width="512" height="512"><path d="M414.74 95.558c-21.512-21.516-50.12-33.364-80.544-33.364-30.428 0-59.032 11.848-80.544 33.364l-9.044 9.044-9.044-9.044c-21.516-21.516-50.124-33.364-80.548-33.364-30.428 0-59.032 11.848-80.544 33.364-44.416 44.408-44.416 116.672 0 161.084L236.12 418.29a11.957 11.957 0 0 0 8.484 3.516c3.072 0 6.14-1.172 8.492-3.512L414.74 256.646c21.516-21.512 33.364-50.12 33.364-80.544 0-30.428-11.848-59.032-33.364-80.544zm-16.972 144.116l-153.16 153.164L91.444 239.674c-35.056-35.056-35.056-92.092 0-127.148 16.98-16.98 39.556-26.332 63.572-26.332 24.012 0 46.592 9.352 63.576 26.332l17.528 17.528c4.688 4.688 12.28 4.688 16.968 0l17.528-17.528c16.984-16.98 39.56-26.332 63.576-26.332s46.596 9.352 63.576 26.332c35.056 35.056 35.056 92.092 0 127.148z" fill="green"/><path d="M56 213.806H12c-6.628 0-12 5.372-12 12s5.372 12 12 12h44c6.628 0 12-5.372 12-12s-5.372-12-12-12z" fill="green"/><path d="M431.992 214.194H317.144l-17.872-39.308c-1.348-2.972-4.284-4.78-7.624-4.684a7.99 7.99 0 0 0-7.196 5.316l-36.528 102.936-44.408-122.98a8 8 0 0 0-7.148-5.272c-3.456-.16-6.236 1.66-7.612 4.584l-29.84 63.408h-98.92c-4.42 0-8 3.584-8 8s5.264 7.612 9.684 7.612h104c3.1 0 4.236-1.4 5.556-4.204l23.788-50.548 45.452 125.86a7.998 7.998 0 0 0 7.524 5.28h.016a7.993 7.993 0 0 0 7.516-5.324l37.376-105.332 11.804 25.964c1.296 2.86 5.832 4.304 8.968 4.304h120c4.416 0 6.312-3.196 6.312-7.612s-3.584-8-8-8z" fill="green"/><path d="M472 209.806h-36c-6.628 0-12 5.372-12 12s5.372 12 12 12h36c6.628 0 12-5.372 12-12s-5.372-12-12-12z" fill="green"/></svg>