<svg xmlns="http://www.w3.org/2000/svg" viewBox="0 0 417.074 417.074"><path d="M165.401 139.394a5.472 5.472 0 1 1 10.604 1.381l8.747 102.192 16.379-59.038a5.457 5.457 0 0 1 5.396-4.009 5.475 5.475 0 0 1 5.213 4.243l9.121 39.569 15.573-65.431c.608-2.56 2.957-4.313 5.582-4.201a5.478 5.478 0 0 1 5.163 4.708l11.622 82.857 5.21-16.84a5.474 5.474 0 0 1 5.229-3.854h123.254v-28.214c0-26.045-21.116-47.166-47.176-47.166h-74.883V70.706c0-26.057-21.115-47.17-47.17-47.17h-31.543c-26.049 0-47.176 21.114-47.176 47.17v74.884H69.659c-26.036 0-47.162 21.121-47.162 47.166v28.816h113.416l29.488-82.178z" fill="#e74424"/><path d="M262.013 268.313a5.474 5.474 0 0 1-10.649-.859l-10.997-78.4-14.267 59.945a5.475 5.475 0 0 1-5.324 4.207h-.02a5.474 5.474 0 0 1-5.314-4.245l-9.525-41.325-18.748 67.576a5.476 5.476 0 0 1-5.781 3.987 5.472 5.472 0 0 1-4.947-4.984l-9.203-107.526-22.319 62.207a5.47 5.47 0 0 1-5.152 3.625H23.226c3.89 22.131 23.2 38.951 46.435 38.951h74.887v74.886c0 26.057 21.127 47.18 47.176 47.18h31.543c26.055 0 47.17-21.124 47.17-47.18v-74.886h74.883c23.467 0 42.916-17.125 46.556-39.553h-118.6l-11.263 36.394z" fill="#e74424"/><path d="M411.603 220.971H269.241a5.474 5.474 0 0 0-5.229 3.854l-5.21 16.84-11.622-82.857a5.478 5.478 0 0 0-5.163-4.708c-2.625-.112-4.974 1.641-5.582 4.201l-15.573 65.431-9.121-39.569a5.475 5.475 0 0 0-5.213-4.243 5.458 5.458 0 0 0-5.396 4.009l-16.379 59.038-8.747-102.192a5.47 5.47 0 0 0-4.746-4.961 5.47 5.47 0 0 0-5.858 3.58l-29.486 82.179H5.474a5.474 5.474 0 0 0 0 10.948h134.291a5.47 5.47 0 0 0 5.152-3.625l22.319-62.207 9.203 107.526a5.474 5.474 0 0 0 10.728.997l18.748-67.577 9.525 41.325a5.473 5.473 0 0 0 5.314 4.245h.02a5.474 5.474 0 0 0 5.324-4.207l14.267-59.944 10.997 78.4a5.474 5.474 0 0 0 10.649.859l11.263-36.396h138.328a5.472 5.472 0 0 0 5.472-5.473 5.47 5.47 0 0 0-5.471-5.473z" fill="#f7f1e6"/></svg>