<svg xmlns="http://www.w3.org/2000/svg" viewBox="0 0 410.924 410.924"><path d="M259.433 133.413c-1.658-12.364-3.75-24.195-6.249-35.334-13.061 7.926-27.076 18.21-41.311 30.352a460.42 460.42 0 0 1 3.465 2.602c15.061.245 29.833 1.042 44.095 2.38zM309.792 140.797l.054-.122c11.86-27.479 13.653-48.64 4.798-56.604-2.977-2.678-7.306-4.035-12.866-4.035-9.345 0-21.015 3.551-34.104 10.03 3.339 14.056 6.04 29.204 8.047 45.138 11.83 1.49 23.23 3.362 34.071 5.593zM279.755 189.191c.553.595 1.114 1.188 1.661 1.783 8.246-12.046 15.421-23.93 21.323-35.351a430.167 430.167 0 0 0-25.228-4.132c1.148 12.238 1.897 24.852 2.244 37.7zM189.221 131.169c.584-.543 1.169-1.095 1.754-1.632-12.155-8.325-24.064-15.522-35.346-21.381a430.214 430.214 0 0 0-4.137 25.258c12.247-1.15 24.871-1.898 37.729-2.245zM147.688 174.772a514.385 514.385 0 0 1 10.392-11.926 506.866 506.866 0 0 1 14.075-15.014 534.3 534.3 0 0 0-22.557 1.766 536.167 536.167 0 0 0-1.91 25.174zM263.971 214.662c.047-3.056.08-6.12.08-9.2 0-4.722-.058-9.417-.169-14.079a494.681 494.681 0 0 0-24.516-23.619 489.5 489.5 0 0 0-24.739-20.812c-3.044-.047-6.096-.08-9.165-.08-4.71 0-9.392.058-14.042.168a487.258 487.258 0 0 0-23.656 24.516 495.468 495.468 0 0 0-20.811 24.704c-.047 3.056-.08 6.121-.08 9.202 0 4.723.058 9.419.169 14.082a494.545 494.545 0 0 0 24.513 23.615 489.545 489.545 0 0 0 24.74 20.813c3.045.047 6.098.08 9.167.08 4.709 0 9.392-.058 14.041-.168a486.777 486.777 0 0 0 23.655-24.515 495.943 495.943 0 0 0 20.813-24.707zm-58.509 18.747c-15.434 0-27.947-12.512-27.947-27.947 0-15.435 12.513-27.947 27.947-27.947s27.947 12.512 27.947 27.947c-.001 15.435-12.513 27.947-27.947 27.947zM15.931 205.462c0 13.68 19.598 28.451 52.424 39.513 8.29 2.793 17.21 5.3 26.653 7.508 6.856-13.688 15.49-28.024 25.578-42.527-14.401-16.634-26.534-33.25-35.67-48.982-5.754 1.542-11.289 3.198-16.561 4.975-32.826 11.062-52.424 25.833-52.424 39.513zM326.007 249.95c5.754-1.542 11.29-3.198 16.563-4.975 32.826-11.062 52.424-25.833 52.424-39.513s-19.598-28.451-52.424-39.513c-8.29-2.793-17.211-5.301-26.654-7.509-6.856 13.688-15.49 28.024-25.579 42.528 14.401 16.634 26.534 33.249 35.67 48.982zM205.462 15.931c-13.68 0-28.451 19.598-39.513 52.424-2.794 8.292-5.302 17.215-7.51 26.661a288.938 288.938 0 0 1 8.722 4.558c11.06 6.028 22.408 13.102 33.819 21.037 16.835-14.563 33.482-26.663 48.978-35.66-1.544-5.766-3.204-11.313-4.984-16.596-11.062-32.826-25.833-52.424-39.512-52.424zM205.462 394.993c13.68 0 28.451-19.598 39.513-52.424 2.794-8.292 5.302-17.215 7.51-26.66a286.793 286.793 0 0 1-8.724-4.559c-11.059-6.028-22.407-13.102-33.818-21.037-16.835 14.563-33.482 26.662-48.978 35.659 1.544 5.767 3.204 11.313 4.984 16.596 11.063 32.827 25.834 52.425 39.513 52.425zM236.149 147.687c4 3.38 7.981 6.841 11.93 10.393a516.044 516.044 0 0 1 15.013 14.065 533.878 533.878 0 0 0-1.765-22.548 537.9 537.9 0 0 0-25.178-1.91zM140.81 101.075c-15.464-6.702-29.244-10.378-40.173-10.378-7.661 0-13.234 1.878-16.566 5.583-7.042 7.831-4.709 25.045 6.084 46.95 14.031-3.33 29.149-6.023 45.05-8.026 1.493-11.852 3.368-23.27 5.605-34.129zM101.133 270.127l-.054.122c-11.86 27.479-13.654 48.639-4.799 56.604 2.977 2.678 7.306 4.035 12.867 4.035 9.344 0 21.015-3.551 34.104-10.03-3.339-14.056-6.04-29.204-8.047-45.138-11.83-1.49-23.231-3.362-34.071-5.593zM312.794 253.195c-8.045-13.331-18.296-27.3-30.273-41.347a491.418 491.418 0 0 1-2.628 3.5c-.246 15.058-1.043 29.826-2.381 44.084 12.345-1.655 24.158-3.743 35.282-6.237zM263.237 236.151a516.609 516.609 0 0 1-10.393 11.928 508.113 508.113 0 0 1-14.075 15.014 534.48 534.48 0 0 0 22.558-1.766 537.607 537.607 0 0 0 1.91-25.176zM221.701 279.755c-.585.543-1.169 1.095-1.754 1.632 12.156 8.325 24.065 15.522 35.347 21.382a429.369 429.369 0 0 0 4.138-25.258c-12.246 1.149-24.871 1.897-37.731 2.244zM174.773 263.237a516.14 516.14 0 0 1-11.93-10.393 514.617 514.617 0 0 1-15.011-14.063 533.78 533.78 0 0 0 1.765 22.546 537.813 537.813 0 0 0 25.176 1.91zM131.033 195.573c.246-15.057 1.043-29.825 2.381-44.082-12.346 1.655-24.16 3.744-35.285 6.238 8.044 13.331 18.295 27.3 30.273 41.347a492.419 492.419 0 0 1 2.631-3.503zM270.115 309.849c15.464 6.702 29.243 10.377 40.171 10.377 7.661 0 13.234-1.878 16.565-5.583 7.043-7.83 4.709-25.044-6.083-46.95-14.03 3.329-29.147 6.022-45.048 8.026-1.492 11.853-3.368 23.272-5.605 34.13zM151.492 277.511c1.658 12.364 3.75 24.195 6.249 35.334 13.061-7.926 27.076-18.21 41.31-30.352a460.42 460.42 0 0 1-3.465-2.602c-15.061-.245-29.833-1.042-44.094-2.38zM131.171 221.736c-.554-.596-1.116-1.19-1.664-1.786-8.246 12.046-15.42 23.93-21.322 35.351a430.203 430.203 0 0 0 25.229 4.132c-1.148-12.237-1.896-24.849-2.243-37.697z" fill="none"/><circle cx="205.462" cy="205.462" r="27.947" fill="#1b2327"/><path d="M146.954 196.26a456.327 456.327 0 0 0-9.748 12.816 453.622 453.622 0 0 0 9.836 10.467 591.745 591.745 0 0 1-.169-14.082c.001-3.08.033-6.145.081-9.201zM214.627 146.952a463.945 463.945 0 0 0-12.772-9.701 466.136 466.136 0 0 0-10.435 9.79c4.65-.111 9.333-.168 14.042-.168 3.069 0 6.121.032 9.165.079zM263.971 214.662a455.67 455.67 0 0 0 9.746-12.813 457.708 457.708 0 0 0-9.834-10.465c.111 4.662.169 9.357.169 14.079a597.655 597.655 0 0 1-.081 9.199zM215.338 131.032a491.21 491.21 0 0 1 20.812 16.655c8.55.453 16.962 1.086 25.178 1.91a533.878 533.878 0 0 1 1.765 22.548 487.626 487.626 0 0 1 16.663 17.046c-.347-12.848-1.096-25.462-2.243-37.7a429.468 429.468 0 0 1 25.228 4.132 239.444 239.444 0 0 0 7.053-14.826c-10.841-2.231-22.241-4.103-34.071-5.593-2.008-15.934-4.708-31.082-8.047-45.138-4.664 2.308-9.507 4.989-14.49 8.013 2.499 11.14 4.591 22.97 6.249 35.334-14.264-1.338-29.036-2.135-44.097-2.381zM312.794 253.195c-11.124 2.494-22.938 4.582-35.282 6.237 1.337-14.258 2.135-29.027 2.381-44.084a490.859 490.859 0 0 1-16.655 20.803 537.813 537.813 0 0 1-1.91 25.176c-7.375.74-14.91 1.324-22.558 1.766a485.472 485.472 0 0 1-17.067 16.662c12.858-.347 25.483-1.095 37.73-2.244a429.232 429.232 0 0 1-4.138 25.258c5.079 2.638 10.03 5.004 14.82 7.08 2.236-10.858 4.112-22.277 5.605-34.129 15.9-2.003 31.018-4.697 45.048-8.026a179.27 179.27 0 0 0-4.666-8.831 221.41 221.41 0 0 0-3.308-5.668zM131.033 195.573a491.441 491.441 0 0 1 16.654-20.802 537.666 537.666 0 0 1 1.91-25.175 535.972 535.972 0 0 1 22.557-1.766 485.472 485.472 0 0 1 17.067-16.662c-12.858.347-25.483 1.095-37.729 2.244a430.214 430.214 0 0 1 4.137-25.258c-5.079-2.638-10.03-5.004-14.82-7.081-2.236 10.859-4.112 22.277-5.605 34.129-15.901 2.003-31.02 4.697-45.05 8.026a179.27 179.27 0 0 0 4.666 8.831 220.984 220.984 0 0 0 3.309 5.668c11.125-2.494 22.939-4.583 35.285-6.238-1.337 14.26-2.135 29.027-2.381 44.084zM195.586 279.892a490.574 490.574 0 0 1-20.812-16.655 537.857 537.857 0 0 1-25.177-1.91 537.266 537.266 0 0 1-1.765-22.546 485.78 485.78 0 0 1-16.662-17.044c.347 12.847 1.095 25.46 2.243 37.696a429.367 429.367 0 0 1-25.229-4.132 238.843 238.843 0 0 0-7.052 14.826c10.841 2.231 22.241 4.103 34.072 5.593 2.007 15.934 4.708 31.082 8.047 45.138 4.663-2.309 9.507-4.989 14.489-8.013-2.499-11.14-4.591-22.97-6.249-35.334 14.262 1.338 29.034 2.135 44.095 2.381zM196.296 263.972a462.518 462.518 0 0 0 12.773 9.702c3.479-3.16 6.96-6.434 10.435-9.791-4.649.111-9.332.168-14.041.168-3.069 0-6.123-.032-9.167-.079zM244.975 342.569c-11.062 32.826-25.833 52.424-39.513 52.424-13.679 0-28.451-19.598-39.514-52.424-1.78-5.283-3.439-10.83-4.984-16.596-4.937 2.866-9.753 5.407-14.425 7.622a283.42 283.42 0 0 0 4.313 14.062c13.748 40.798 33.142 63.267 54.609 63.267s40.861-22.469 54.609-63.267c2.634-7.816 5.024-16.156 7.161-24.936-4.761-1.994-9.687-4.273-14.747-6.812-2.207 9.445-4.714 18.368-7.509 26.66zM347.657 150.853c-7.819-2.635-16.162-5.026-24.945-7.163-.299.714-.595 1.426-.906 2.147a244.996 244.996 0 0 1-5.89 12.603c9.443 2.208 18.364 4.715 26.654 7.509 32.826 11.062 52.424 25.833 52.424 39.513s-19.598 28.451-52.424 39.513c-5.272 1.777-10.808 3.434-16.563 4.975.488.841.974 1.681 1.445 2.517a187.458 187.458 0 0 1 6.181 11.908 283.596 283.596 0 0 0 14.024-4.303c40.799-13.75 63.267-33.144 63.267-54.61s-22.468-40.86-63.267-54.609zM95.008 252.483c-9.443-2.208-18.363-4.715-26.653-7.508-32.826-11.062-52.424-25.833-52.424-39.513s19.598-28.451 52.424-39.513c5.272-1.776 10.807-3.433 16.561-4.975-.488-.841-.974-1.681-1.445-2.517a187.442 187.442 0 0 1-6.181-11.907 283.19 283.19 0 0 0-14.022 4.302C22.469 164.602.001 183.996.001 205.462s22.469 40.86 63.267 54.609c7.819 2.635 16.161 5.026 24.945 7.163.298-.713.594-1.426.906-2.147a243.314 243.314 0 0 1 5.889-12.604zM165.95 68.355c11.062-32.826 25.833-52.424 39.513-52.424s28.451 19.598 39.513 52.424c1.78 5.283 3.44 10.83 4.984 16.596 4.938-2.866 9.753-5.407 14.426-7.623a282.641 282.641 0 0 0-4.313-14.061C246.324 22.469 226.93 0 205.464 0s-40.861 22.469-54.609 63.267c-2.634 7.816-5.024 16.156-7.161 24.937 4.761 1.993 9.687 4.273 14.747 6.812 2.207-9.446 4.713-18.369 7.509-26.661z" fill="#d09220"/><path d="M326.007 249.95c-9.136-15.733-21.269-32.349-35.67-48.982 10.088-14.503 18.722-28.84 25.579-42.528a244.996 244.996 0 0 0 5.89-12.603c.312-.722.607-1.434.906-2.147 13.708-32.762 13.959-57.327.643-69.304-5.441-4.895-12.701-7.376-21.577-7.376-10.549 0-23.302 3.639-37.393 10.319-4.672 2.216-9.488 4.756-14.426 7.623-15.496 8.997-32.143 21.097-48.978 35.66-11.412-7.935-22.76-15.009-33.819-21.037a288.938 288.938 0 0 0-8.722-4.558c-5.061-2.538-9.986-4.818-14.747-6.812-16.552-6.932-31.177-10.534-43.056-10.534-11.512 0-20.344 3.33-26.251 9.898-10.681 11.875-9.58 32.564 2.905 58.982a187.442 187.442 0 0 0 6.181 11.907c.471.836.957 1.676 1.445 2.517 9.136 15.733 21.269 32.349 35.67 48.982-10.088 14.503-18.722 28.839-25.578 42.527a244.627 244.627 0 0 0-5.89 12.604c-.312.721-.607 1.434-.906 2.147-13.707 32.762-13.959 57.328-.644 69.305 5.443 4.894 12.703 7.376 21.578 7.376 10.549 0 23.301-3.639 37.393-10.32 4.672-2.215 9.488-4.756 14.425-7.622 15.496-8.997 32.143-21.097 48.978-35.659 11.411 7.935 22.759 15.009 33.818 21.037a289.068 289.068 0 0 0 8.724 4.559c5.061 2.539 9.986 4.818 14.747 6.812 16.551 6.931 31.175 10.533 43.054 10.533 11.511 0 20.343-3.33 26.251-9.898 10.681-11.874 9.579-32.563-2.905-58.981a187.458 187.458 0 0 0-6.181-11.908c-.47-.838-.956-1.678-1.444-2.519zM253.184 98.079c4.982-3.023 9.826-5.705 14.49-8.013 13.089-6.479 24.76-10.03 34.104-10.03 5.56 0 9.889 1.357 12.866 4.035 8.855 7.964 7.062 29.125-4.798 56.604l-.054.122a238.87 238.87 0 0 1-7.053 14.826c-5.902 11.421-13.078 23.305-21.323 35.351-.547-.595-1.108-1.188-1.661-1.783a484.103 484.103 0 0 0-16.663-17.046 514.67 514.67 0 0 0-15.013-14.065 514.052 514.052 0 0 0-11.93-10.393 490.574 490.574 0 0 0-20.812-16.655 489.196 489.196 0 0 0-3.465-2.602c14.234-12.141 28.251-22.426 41.312-30.351zm-33.681 165.804a464.176 464.176 0 0 1-10.435 9.791 462.518 462.518 0 0 1-12.773-9.702 489.103 489.103 0 0 1-24.74-20.813 494.545 494.545 0 0 1-24.513-23.615 453.622 453.622 0 0 1-9.836-10.467 454.418 454.418 0 0 1 9.748-12.816 495.922 495.922 0 0 1 20.811-24.704 487.684 487.684 0 0 1 34.091-34.306 464.427 464.427 0 0 1 12.772 9.701 489.059 489.059 0 0 1 24.739 20.812 494.226 494.226 0 0 1 24.516 23.619 453.31 453.31 0 0 1 9.834 10.465 454.22 454.22 0 0 1-9.746 12.813 495.017 495.017 0 0 1-20.813 24.706 486.82 486.82 0 0 1-23.655 24.516zM98.129 157.729a222.712 222.712 0 0 1-3.309-5.668 180.996 180.996 0 0 1-4.666-8.831c-10.793-21.905-13.127-39.12-6.084-46.95 3.332-3.705 8.906-5.583 16.566-5.583 10.929 0 24.709 3.676 40.173 10.378 4.79 2.076 9.741 4.443 14.82 7.081 11.282 5.859 23.191 13.057 35.346 21.381-.585.538-1.169 1.089-1.754 1.632a485.472 485.472 0 0 0-17.067 16.662 506.866 506.866 0 0 0-14.075 15.014 518.586 518.586 0 0 0-10.392 11.926 490.805 490.805 0 0 0-16.654 20.802 426.711 426.711 0 0 0-2.631 3.503c-11.978-14.047-22.229-28.016-30.273-41.347zm59.612 155.116c-4.982 3.023-9.826 5.704-14.489 8.013-13.089 6.479-24.76 10.03-34.104 10.03-5.561 0-9.89-1.357-12.867-4.035-8.855-7.965-7.062-29.125 4.799-56.604l.054-.122a238.843 238.843 0 0 1 7.052-14.826c5.901-11.42 13.076-23.304 21.322-35.351.548.596 1.11 1.19 1.664 1.786a484.912 484.912 0 0 0 16.662 17.044 513.25 513.25 0 0 0 15.011 14.063 516.14 516.14 0 0 0 11.93 10.393 490.574 490.574 0 0 0 20.812 16.655c1.155.873 2.31 1.745 3.465 2.602-14.236 12.142-28.251 22.427-41.311 30.352zm169.111 1.799c-3.332 3.704-8.905 5.583-16.565 5.583-10.928 0-24.708-3.675-40.171-10.377-4.79-2.076-9.742-4.442-14.82-7.08-11.282-5.859-23.191-13.057-35.347-21.382.585-.538 1.169-1.089 1.754-1.632a485.472 485.472 0 0 0 17.067-16.662 505.624 505.624 0 0 0 14.075-15.014 516.609 516.609 0 0 0 10.393-11.928 491.495 491.495 0 0 0 16.655-20.803c.882-1.167 1.764-2.333 2.628-3.5 11.977 14.047 22.228 28.016 30.273 41.347a222.712 222.712 0 0 1 3.309 5.668 180.996 180.996 0 0 1 4.666 8.831c10.793 21.905 13.126 39.119 6.083 46.949z" fill="#d43d21"/></svg>