<svg xmlns="http://www.w3.org/2000/svg" viewBox="0 0 59 59"><circle cx="29.5" cy="29.5" r="29" fill="#e6e7e8" stroke="#ecf0f1" stroke-miterlimit="10"/><path fill="#38454f" d="M36.863 38.5H23.467l-4.604-12 11-8 11 8z"/><g fill="#38454f"><path d="M24.31 37.605a1 1 0 0 0-1.342.447l-.447.895a1 1 0 1 0 1.789.894l.447-.895a.998.998 0 0 0-.447-1.341zM22.521 41.183a1 1 0 0 0-1.342.447l-.447.895a1 1 0 1 0 1.789.894l.447-.895a.998.998 0 0 0-.447-1.341zM38.205 38.947l-.447-.895a1 1 0 0 0-1.789.895l.447.895a1 1 0 1 0 1.789-.895zM39.547 41.63a1 1 0 0 0-1.789.895l.447.895a1 1 0 1 0 1.789-.894l-.447-.896zM16.853 24.551l-.919-.394a1 1 0 0 0-.789 1.838l.919.394a1 1 0 0 0 .789-1.838zM13.177 22.975l-.919-.394a1 1 0 0 0-.789 1.838l.919.394a1 1 0 0 0 .789-1.838zM29.863 10.5a1 1 0 0 0-1 1v1a1 1 0 1 0 2 0v-1a1 1 0 0 0-1-1zM29.863 14.5a1 1 0 0 0-1 1v1a1 1 0 1 0 2 0v-1a1 1 0 0 0-1-1zM43.792 24.157l-.919.394a1 1 0 1 0 .79 1.837l.919-.394a1 1 0 1 0-.79-1.837zM48.782 23.106a1 1 0 0 0-1.313-.525l-.919.394a1 1 0 1 0 .79 1.837l.919-.394a.999.999 0 0 0 .523-1.312z"/></g><path d="M22.345 1.49l-2.497 3.59 10.015 6.42 9-6.882-2.266-3.24a29.075 29.075 0 0 0-6.915-.874 29.041 29.041 0 0 0-7.337.986zM49.493 12.5l-1.63 11 10.007 6.077.603-1.151a28.847 28.847 0 0 0-5.126-15.422l-3.854-.504zM50.666 49.314l.197-4.81-11-.004-4.793 10.605 4.146 1.722a29.025 29.025 0 0 0 11.45-7.513zM20.863 44.5l-12 .004.214 5.208a29.002 29.002 0 0 0 11.27 7.182l4.309-1.789L20.863 44.5zM11.863 23.5l-1.63-11-4.254.556A28.834 28.834 0 0 0 .918 27.785l.939 1.792L11.863 23.5z" fill="#435159"/></svg>