<svg xmlns="http://www.w3.org/2000/svg" width="512" height="512" viewBox="0 0 487.811 487.81"><g fill="green"><path d="M150.463 109.521h150.512a7.16 7.16 0 0 0 7.16-7.161 7.16 7.16 0 0 0-7.16-7.161H150.463a7.16 7.16 0 1 0 0 14.322zM15.853 179.537h150.511a7.16 7.16 0 1 0 0-14.321H15.853a7.16 7.16 0 1 0 0 14.321zM56.258 253.214a7.162 7.162 0 0 0 7.161 7.162H213.93a7.162 7.162 0 0 0 0-14.322H63.419a7.16 7.16 0 0 0-7.161 7.16zM142.396 336.44H7.161a7.16 7.16 0 1 0 0 14.321h135.235a7.16 7.16 0 1 0 0-14.321zM385.729 154.418c21.6 0 39.111-17.513 39.111-39.114s-17.512-39.113-39.111-39.113c-21.605 0-39.119 17.513-39.119 39.113-.001 21.601 17.513 39.114 39.119 39.114z"/><path d="M450.066 143.155c-22.459 31.459-52.533 35.102-84.895 15.89-2.203-1.306-11.977-6.691-14.141-7.977-52.061-30.906-104.061-18.786-138.934 30.05-14.819 20.771 19.455 40.459 34.108 19.93 18.018-25.232 40.929-32.533 65.986-24.541-12.83 22.27-24.047 44.405-39.875 75.853-15.832 31.448-50.787 56.562-84.374 36.92-24.235-14.165-46.09 20.651-21.928 34.772 45.854 26.799 99.619 10.343 127.066-24.493.952.509 1.958.968 3.062 1.354 22.422 7.812 51.814 28.61 60.77 35.981 8.953 7.371 24.336 44.921 33.471 63.788 11.082 22.893 46.871 6.219 35.748-16.771-10.355-21.406-27.736-64.129-41.293-74.938-10.875-8.669-31.988-24.803-49.895-33.956 12.115-23.466 24.729-46.679 38.008-69.491 42.328 12.969 82.561-2.308 111.215-42.446 14.831-20.768-19.435-40.456-34.099-19.925z"/></g></svg>