<svg xmlns="http://www.w3.org/2000/svg" viewBox="0 0 503.947 503.947"><path d="M156.762 355.214c22.055 22.055 22.055 58.289 0 80.345-22.055 22.055-87.04 50.806-109.095 28.751s6.695-87.04 28.751-109.095c22.055-22.056 57.895-22.056 80.344-.001z" fill="#efc75e"/><path d="M90.99 344.58v2.363c0 40.96 33.477 74.437 74.437 74.437h1.575c11.028-21.268 7.483-48.049-10.634-66.166-17.329-17.723-44.11-21.268-65.378-10.634z" fill="#deb957"/><path d="M272.553 231.546c67.348 67.348 80.738 163.052 16.935 226.855l-30.326 30.326c-63.803 63.803-19.692-89.403-87.04-156.751s-220.948-22.843-156.751-87.04l30.326-30.326c63.804-63.802 159.508-50.411 226.856 16.936z" fill="#f26c4f"/><path d="M495.47 8.629c20.48 20.48 11.422 150.449-114.215 276.48-81.92 81.526-133.514 110.277-133.514 110.277-54.745 37.022-81.132 11.815-115.791-22.843s-60.258-61.046-22.843-115.791c0 0 29.145-51.988 110.671-133.908C345.414-2.792 474.99-12.244 495.47 8.629z" fill="#f4f0d3"/><path d="M269.402 377.663c-57.108 38.203-84.677 12.209-120.517-23.631-36.234-36.234-62.622-63.409-23.631-120.517l5.908-9.452c-15.36 20.874-22.055 32.689-22.055 32.689-37.415 54.745-11.815 81.132 22.843 115.791s61.046 59.471 115.791 22.843c0 0 24.418-13.785 66.56-48.837-28.751 22.056-44.899 31.114-44.899 31.114z" fill="#e8e4c8"/><path d="M363.531 140.568c19.298 19.298 19.298 50.412 0 69.711-19.298 19.298-50.412 19.298-69.711 0-19.298-19.298-19.298-50.412 0-69.711s50.807-19.299 69.711 0z" fill="#8ba0ab"/><path d="M249.71 262.66c9.846 9.846-9.058 44.898-57.108 92.948s-77.194 61.046-87.04 50.806c-9.846-9.846 2.757-38.991 50.806-87.04 48.443-48.049 83.102-66.954 93.342-56.714z" fill="#f26c4f"/><path d="M328.873 137.811c9.846 0 19.298 3.938 26.388 11.028 7.089 7.089 11.028 16.542 11.028 26.388s-3.938 19.298-11.028 26.388c-7.089 7.089-16.542 11.028-26.388 11.028s-19.298-3.938-26.388-11.028c-7.089-7.089-11.028-16.542-11.028-26.388s3.938-19.298 11.028-26.388c7.089-7.09 16.542-11.028 26.388-11.028m0-11.815c-12.603 0-25.206 4.726-34.658 14.572-19.298 19.298-19.298 50.412 0 69.711 9.452 9.452 22.055 14.572 34.658 14.572s25.206-4.726 34.658-14.572c19.298-19.298 19.298-50.412 0-69.711-9.452-9.846-22.055-14.572-34.658-14.572z" fill="#324d5b"/><path d="M374.953 18.476c3.545 26.388 17.723 54.351 40.96 77.588 20.48 20.086 44.111 33.477 67.348 38.991C509.254 70.463 507.285 20.839 495.47 8.629c-11.422-11.815-58.683-13.784-120.517 9.847z" fill="#f26c4f"/></svg>