<svg xmlns="http://www.w3.org/2000/svg" viewBox="0 0 495 495"><path d="M337.5 259.445V90c0-49.626-40.374-90-90-90v167.5h20v130.662c26.083 8.457 45 32.974 45 61.838 0 35.841-29.159 65-65 65v70c74.439 0 135-60.561 135-135 0-38.805-16.279-74.916-45-100.555z" fill="#9bc9ff"/><path d="M182.5 360c0-28.864 18.917-53.382 45-61.838V167.5h20V0c-49.626 0-90 40.374-90 90v169.445c-28.721 25.639-45 61.75-45 100.555 0 74.439 60.561 135 135 135v-70c-35.841 0-65-29.159-65-65z" fill="#d1e7f8"/><path d="M227.5 298.162c-26.083 8.457-45 32.974-45 61.838 0 35.841 29.159 65 65 65V167.5h-20v130.662z" fill="#ff6243"/><path d="M312.5 360c0-28.864-18.917-53.382-45-61.838V167.5h-20V425c35.841 0 65-29.159 65-65z" fill="#ff3501"/></svg>