<?xml version="1.0" encoding="iso-8859-1"?>
<!-- Generator: Adobe Illustrator 19.0.0, SVG Export Plug-In . SVG Version: 6.00 Build 0)  -->
<svg version="1.1" id="Capa_1" xmlns="http://www.w3.org/2000/svg" xmlns:xlink="http://www.w3.org/1999/xlink" x="0px" y="0px"
	 viewBox="0 0 512 512" style="enable-background:new 0 0 512 512;" xml:space="preserve">
<linearGradient id="SVGID_1_" gradientUnits="userSpaceOnUse" x1="0" y1="258.001" x2="512" y2="258.001" gradientTransform="matrix(1 0 0 -1 0 514.001)">
	<stop  offset="0" style="stop-color:#00F2FE"/>
	<stop  offset="0.021" style="stop-color:#03EFFE"/>
	<stop  offset="0.293" style="stop-color:#24D2FE"/>
	<stop  offset="0.554" style="stop-color:#3CBDFE"/>
	<stop  offset="0.796" style="stop-color:#4AB0FE"/>
	<stop  offset="1" style="stop-color:#4FACFE"/>
</linearGradient>
<path style="fill:url(#SVGID_1_);" d="M87,234.039H20c-11.046,0-20-8.954-20-20s8.954-20,20-20h67c11.046,0,20,8.954,20,20
	S98.046,234.039,87,234.039z M430,152.942c0-44.663-36.336-81-81-81c-21.798,0-42.247,8.534-57.579,24.029
	c-7.769,7.852-7.702,20.516,0.15,28.284c7.852,7.771,20.515,7.701,28.284-0.149c7.761-7.844,18.112-12.164,29.146-12.164
	c22.607,0,41,18.393,41,41c0,22.661-18.393,41.097-41,41.097H187c-11.046,0-20,8.954-20,20s8.954,20,20,20h162
	C393.664,234.039,430,197.659,430,152.942z M260,293.048c0.005-11.046-8.945-20.004-19.991-20.009l-220-0.097
	c-0.003,0-0.006,0-0.009,0c-11.041,0-19.995,8.949-20,19.991c-0.005,11.046,8.945,20.004,19.991,20.009l220,0.097
	c0.003,0,0.006,0,0.009,0C251.041,313.039,259.995,304.09,260,293.048z M512,354.039c0-44.717-36.336-81.097-81-81.097h-91
	c-11.046,0-20,8.954-20,20s8.954,20,20,20h91c22.607,0,41,18.436,41,41.097c0,22.607-18.393,41-41,41
	c-10.951,0-21.247-4.265-28.992-12.009c-7.811-7.811-20.474-7.81-28.284,0.001s-7.81,20.474,0.001,28.284
	c15.299,15.299,35.64,23.724,57.275,23.724C475.664,435.039,512,398.702,512,354.039z M241,88.961c0-38.599-31.402-70-70-70
	c-19.019,0-36.81,7.496-50.096,21.108c-7.715,7.904-7.562,20.566,0.343,28.282c7.905,7.714,20.567,7.562,28.282-0.343
	c5.695-5.835,13.32-9.048,21.471-9.048c16.542,0,30,13.458,30,30c0,16.585-13.458,30.078-30,30.078H20c-11.046,0-20,8.954-20,20
	s8.954,20,20,20h151C209.598,159.039,241,127.603,241,88.961z M281,423.039c0-38.642-31.402-70.078-70-70.078H20
	c-11.046,0-20,8.954-20,20s8.954,20,20,20h191c16.542,0,30,13.493,30,30.078c0,16.542-13.458,30-30,30
	c-8.151,0-15.776-3.213-21.471-9.048c-7.716-7.905-20.378-8.059-28.282-0.343c-7.905,7.716-8.058,20.378-0.343,28.282
	c13.286,13.612,31.077,21.108,50.096,21.108C249.598,493.039,281,461.637,281,423.039z"/>
<g>
</g>
<g>
</g>
<g>
</g>
<g>
</g>
<g>
</g>
<g>
</g>
<g>
</g>
<g>
</g>
<g>
</g>
<g>
</g>
<g>
</g>
<g>
</g>
<g>
</g>
<g>
</g>
<g>
</g>
</svg>
