<svg xmlns="http://www.w3.org/2000/svg" width="512" height="512" viewBox="0 0 612 612"><path d="M372.938 344.25H28.688C12.833 344.25 0 357.102 0 372.938s12.833 28.688 28.688 28.688h344.25c26.354 0 47.812 21.439 47.812 47.812s-21.458 47.812-47.812 47.812-47.812-21.439-47.812-47.812c0-15.836-12.833-28.688-28.688-28.688s-28.688 12.852-28.688 28.688c0 57.987 47.182 105.188 105.188 105.188s105.188-47.2 105.188-105.188S430.943 344.25 372.938 344.25zm114.75-286.875c-68.544 0-124.312 55.769-124.312 124.312 0 15.835 12.833 28.688 28.688 28.688s28.688-12.852 28.688-28.688c0-36.911 30.026-66.938 66.938-66.938s66.938 30.026 66.938 66.938-30.026 66.938-66.938 66.938H86.062c-15.854 0-28.688 12.852-28.688 28.688S70.208 306 86.062 306h401.625C556.231 306 612 250.231 612 181.688S556.231 57.375 487.688 57.375z" fill="green"/></svg>