<svg xmlns="http://www.w3.org/2000/svg" viewBox="0 0 495 495"><path d="M340.924 119.191c0-34.657-28.196-62.853-62.854-62.853h-20v40h20c12.602 0 22.854 10.252 22.854 22.853s-10.252 22.853-22.854 22.853H0v40h278.07c34.658 0 62.854-28.196 62.854-62.853zM355.109 312.956H0v40h355.109c12.601 0 22.853 10.252 22.853 22.853s-10.252 22.853-22.853 22.853h-20v40h20c34.657 0 62.853-28.196 62.853-62.853s-28.195-62.853-62.853-62.853z" fill="#bddbff"/><path fill="#9bc9ff" d="M176.088 227.5H495v40H176.088zM0 227.5h128.044v40H0z"/></svg>