<svg xmlns="http://www.w3.org/2000/svg" viewBox="0 0 273.971 273.971"><path d="M151.513 75.87c-2.009 6.831 16.811 22.99 16.811 22.99l43.283-17.174s4.177-23.88-1.292-28.432c-12.107-10.074-54.357 7.506-58.802 22.616zm95.511 85.304l-18.846-44.669 45.792-12.686-56.987 3.824-32.339 14.875-35.674 38.301 37.401-22.244 12.906 39.824 7.405-2.327 9.992 47.122-12.123 6.559 20.975-.256s-2.458-57.67-2.015-56.517c.444 1.153 6.732 56.235 6.732 56.235l20.439.151-13.797-7.651 5.604-59.027 4.535-1.514z" fill="#351f10"/><path fill="#e2d4bf" d="M188.843 115.776l30.821 37.778-8.036-47.425z"/><path d="M224.598 80.514c-1.033-3.965-4.194-6.575-7.056-5.828-1.153.301-2.078 1.105-2.709 2.212-6.254-4.477-13.924-14.669-29.78-6.901-20.176 9.885-15.743 20.417-15.796 28.505-1.86-.604-3.705-.404-4.96.725-2.202 1.975-1.77 6.05.967 9.097 2.737 3.051 6.741 3.919 8.944 1.942.339-.302.606-.659.822-1.05 6.296 4.248 16.795 4.563 26.921.123 10.259-4.498 17.181-12.576 18.186-20.173a3.93 3.93 0 0 0 1.145-.119c2.865-.751 4.347-4.568 3.316-8.533z" fill="#eabb98"/><g fill="#351f10"><path d="M186.033 92.761c.138 1.271-.813 2.42-2.12 2.563-1.311.142-2.487-.775-2.626-2.047-.139-1.272.813-2.421 2.123-2.564 1.307-.142 2.485.774 2.623 2.048z"/><ellipse transform="rotate(-6.2 201.315 86.594)" cx="201.294" cy="86.586" rx="2.387" ry="2.316"/></g><path d="M189.562 115.271l-8.794 5.785s20.77 30.183 38.348 32.255l-29.554-38.04zm18.529-10.857l11.573 49.141s6.265-27.542 3.158-47.101l-14.731-2.04z" fill="#665e5a"/><path fill="#fe0000" d="M199.983 109.954l-15.366-1.36 7.688 15.947 9.075-11.535 14.979 2.302-6.507-16.319z"/><path d="M36.201 83.11S22.971 46.819 77.97 42.819l8.524 36.488-50.293 3.803zm49.086 86.412l-2.533-37.924 16.217 23.221-18.629-45.059-39.4 1.289-32.971 46.77 30.805-27.039-4.236 37.68 6.814.127 7.229 51.336-12.309 9.127 18.667-1v-9.654s6.029-46.813 6.029-45.576v54.93l21.02-.236-12.383-7.463 10.904-50.742 4.776.213z" fill="#351f10"/><path fill="#e2d4bf" d="M49.281 106.264l15.205 46.324 9.524-47.148z"/><path d="M94.311 86.188c.459-4.072-1.555-7.643-4.494-7.973-1.184-.133-2.336.285-3.322 1.092-4.231-6.424-7.731-15.689-25.317-14.131-22.381 1.983-22.024 10.405-24.977 17.934-1.52-1.231-3.313-1.707-4.889-1.104-2.765 1.053-3.824 5.012-2.363 8.838 1.46 3.83 4.885 6.078 7.65 5.023.425-.16.803-.398 1.145-.686 4.352 6.227 14.038 10.289 25.083 9.779 11.19-.516 20.55-5.57 24.216-12.299.353.15.723.254 1.111.299 2.942.33 5.696-2.702 6.157-6.772z" fill="#eabb98"/><g fill="#351f10"><ellipse transform="rotate(14.828 57.617 83.17)" cx="57.612" cy="83.163" rx="2.387" ry="2.318"/><ellipse transform="rotate(14.828 76.381 83.489)" cx="76.38" cy="83.489" rx="2.387" ry="2.317"/></g><path d="M50.133 106.051l-10.285 5.242s8.551 32.627 24.213 40.871l-13.928-46.113zm21.191-3.482l-6.838 50.019s15.733-23.457 19.855-42.828l-13.017-7.191z" fill="#665e5a"/><path fill="#351f10" d="M61.768 104.829l-13.854-6.786 1.451 17.645 12.612-7.508 13.154 7.526-.215-17.569z"/><path d="M48.608 219.985l-17.077 9.653 24.91-1.113-1-10.206zm22.829-.045l-10.966-1.621v9.935l25.407-.262z" fill="#fe0000"/><path fill="#eabb98" d="M121.376 139.806l3.09 87.258h3.606l2.06-73.054 2.576 72.547h3.091l4.121-86.751z"/><path fill="#fe0000" d="M129.102 227.064l-9.757 4.088 6.151-11.191 2.576 1.015zm2.576 0l10.817 3.088-7.211-10.191-2.576 1.015z"/><path d="M123.766 63.711c-14.328 3.683-31.237 15.294-26.785 36.002 5.412 25.175 47.678 27.368 64.924 9.182 11.983-12.637-3.001-32.436-14.215-40.254-8.151-5.683-16.455-6.85-23.924-4.93z" fill="#351f10"/><path d="M140.968 109.805c4.883-1.347 8.98-3.688 11.707-6.642 1.65-.021 3.69-1.763 4.94-4.386 1.489-3.126 1.288-6.309-.447-7.108-.398-.184-3.938-.221-4.407-.138-2.188-7.609-12.307-13.364-24.469-13.364-10.859 0-16.999 4.592-20.41 10.993-.602-.475-1.255-.708-1.907-.612-1.896.275-3.033 3.174-2.536 6.476.493 3.302 2.429 5.757 4.326 5.482.107-.016.211-.043.314-.074 2.348 4.098 7.109 7.407 13.134 9.19l-21.244 45.195 21.586-32.416 17.756-3.028 20.659 29.444-19.002-39.012z" fill="#eabb98"/><path d="M124.229 143.357l-3.703-25.043s6.858-4.315 9.341-4.36c2.755-.047 10.476 4.36 10.476 4.36l-4.224 24.929-11.89.114z" fill="#fe0000"/><ellipse cx="121.53" cy="92.213" rx="2.203" ry="2.352" fill="#351f10"/><ellipse cx="140.223" cy="93.259" rx="2.202" ry="2.353" fill="#351f10"/><path d="M99.74 188.585s3.09-46.673 32.227-45.839c25.485.729 33.708 42.796 33.708 42.796s-20.604 14.206-65.935 3.043z" fill="#fe0000"/><path fill="#665e5a" d="M121.376 137.854h18.545v7.103h-18.545z"/><path d="M151.768 82.048c1.191-.755 4.863-3.706 2.863-5.247-1.569-1.208-5.662 2.179-5.441 3.509.028-1.721-.574-5.665-2.958-4.332-1.676.938-.91 5.475.167 6.824-1.21-1.923-5.968-1.714-6.358.279-.676 3.472 4.748 3.607 6.888 2.384-1.441 1.673-3.604 4.442-1.521 5.901.203.141 2.298.156 2.559.019.672-.354 1.275-1.382 1.531-2.343.197 1.594.938 3.425 2.406 3.26 2.99-.337 1.922-5.907.815-7.202 1.465 1.318 4.206 1.14 4.616-.725.703-3.186-3.537-3.697-5.567-2.327z" fill="#fe0000"/><path d="M20.896 103.127h-1.142c.044 5.862.987 14.248 3.694 26.236 7.918 35.065-5.449 46.047-5.584 46.153l.711.915c.579-.451 14.103-11.454 6.004-47.324-2.71-11.992-3.634-20.274-3.683-25.98z" fill="#665e5a"/><g fill="#fe0000"><path d="M39.626 73.66c-5.376-9.387-15.815-3.46-18.974 1.242C17.494 70.2 7.055 64.273 1.679 73.66c-7.047 12.304 9.806 22.315 18.818 27.345 0 0 .104.114.155.087.051.027.155-.087.155-.087 9.013-5.03 25.865-15.042 18.819-27.345z"/><path d="M20.497 101.004l-3.815 5.55 8.992.642z"/></g></svg>