<?xml version="1.0" encoding="iso-8859-1"?>
<!-- Generator: Adobe Illustrator 19.0.0, SVG Export Plug-In . SVG Version: 6.00 Build 0)  -->
<svg version="1.1" id="Capa_1" xmlns="http://www.w3.org/2000/svg" xmlns:xlink="http://www.w3.org/1999/xlink" x="0px" y="0px"
	 viewBox="0 0 512 512" style="enable-background:new 0 0 512 512;" xml:space="preserve">
<g>
	<path style="fill:#FF3E5A;" d="M376.008,101.229c-14.937-7.444-32.03-5.742-44.952,2.956v-0.003
		c-4.761,2.173-9.275-0.092-10.394-5.181l-0.009-0.002c-0.831-15.551-9.762-30.225-24.698-37.67
		c-22.108-11.02-48.958-2.028-59.975,20.076c-32.305,64.816,30.529,139.256,30.529,139.256s97.27,5.36,129.577-59.455
		C407.101,139.099,398.114,112.248,376.008,101.229z"/>
	<path style="fill:#FF3E5A;" d="M135.628,107.468v-0.002c2.677,1.221,5.209-0.055,5.838-2.91l0.005-0.001
		c1.365-25.599,36.059-32.945,47.555-9.881c18.145,36.402-17.147,78.21-17.147,78.21s-54.629,3.011-72.774-33.391
		C87.64,116.492,114.32,93.123,135.628,107.468z"/>
</g>
<g>
	<path style="fill:#D82749;" d="M257.268,81.405c6.104-12.246,17.069-20.457,29.393-23.481
		c-19.869-4.894-41.172,4.403-50.681,23.481c-32.305,64.816,30.529,139.256,30.529,139.256s8.308,0.455,20.865-0.513
		C281.958,213.504,226.52,143.097,257.268,81.405z"/>
	<path style="fill:#D82749;" d="M132.222,105.556c-21.448-10.027-43.722,12.662-33.116,33.938
		c18.145,36.402,72.774,33.391,72.774,33.391s0.37-0.44,1.008-1.256C115.88,163.116,104.729,118.402,132.222,105.556z"/>
</g>
<path style="fill:#4BA7E0;" d="M218.863,455.378h-87.177c0,0-12.495-0.407-13.946-13.082c-1.786-15.655-5.178-45.373-6.35-55.65
	l113.348-12.193c0.753,6.598,6.926,60.688,7.675,67.25C233.103,449.145,228.825,455.378,218.863,455.378z"/>
<path style="fill:#4B87DD;" d="M132.759,384.347l-21.369,2.299c1.172,10.277,4.564,39.994,6.35,55.65
	c1.451,12.675,13.946,13.082,13.946,13.082h9.178C134.184,396.835,135.434,407.795,132.759,384.347z"/>
<path style="fill:#F0A479;" d="M13.748,142.759c18.771-5.337,25.378,14.71,26,16.334l36.265,77.853l0,0
	c0,0,8.681-15.193,25.092-6.908c45.483,22.956,51.613,25.07,59.683,33.919h0.002c33.412,38.078,29.009,33.841,43.121,81.183
	l-81.869,9.345c-0.004-0.005-11.827-14.275-11.83-14.281c-6.495-7.282-12.114-9.313-50.681-28.777
	c-6.143-3.479-18.98-12.599-23.402-29.923c-0.002-0.008-0.004-0.014-0.004-0.02L0.888,170.38
	C-0.009,166.864-3.457,148.255,13.748,142.759z"/>
<g>
	<path style="fill:#EA976E;" d="M79.546,300.093c-6.143-3.479-18.98-12.599-23.402-29.923c-0.002-0.008-0.004-0.014-0.004-0.02
		L20.903,159.046c-0.552-2.166-2.066-10.057,0.869-17.084c-2.387-0.254-5.052-0.049-8.024,0.796
		c-17.205,5.496-13.757,24.105-12.86,27.62l35.237,111.104c0,0.006,0.002,0.012,0.004,0.02
		c4.422,17.324,17.258,26.443,23.402,29.923c38.948,19.657,44.266,21.585,50.681,28.777c0.003,0.006,11.826,14.276,11.83,14.281
		l27.28-3.114C120.984,317.981,133.503,327.325,79.546,300.093z"/>
	<path style="fill:#EA976E;" d="M123.72,275.511c-5.209-2.63-10.69-5.542-15.989-8.358c-15.386-8.174-18.585-8.951-19.794-13.115
		c-1.548-5.333,2.059-10.277,10.23-25.269c-12.19-4.373-19.533,4.373-21.568,7.279l-0.077,0.142
		c-7.028,11.815-6.888,28.782,10.056,37.335c27.897,14.08,29.695,16.613,33.655,16.613C128.3,290.137,130.986,279.18,123.72,275.511
		z"/>
</g>
<path style="fill:#E8E8E8;" d="M221.784,348.564l3.365,29.478l-113.265,12.927l-3.364-29.478c-0.403-3.542,2.137-6.739,5.677-7.144
	l100.448-11.464C218.182,342.481,221.379,345.021,221.784,348.564z"/>
<path style="fill:#D1D3D3;" d="M129.142,352.642l-14.946,1.706c-3.54,0.404-6.08,3.602-5.677,7.144l3.364,29.478l21.353-2.437
	C133.206,388.259,129.142,352.642,129.142,352.642z"/>
<path style="fill:#4BA7E0;" d="M279.583,441.734c-0.192,4.701,1.077,13.643,13.554,13.643h87.176c0,0,12.496-0.407,13.947-13.082
	c1.786-15.655,5.178-45.373,6.35-55.65l-113.349-12.193C287.257,374.487,279.587,441.7,279.583,441.734z"/>
<path style="fill:#4B87DD;" d="M300.189,441.734c0.002-0.026,7.425-65.066,7.428-65.092l-20.356-2.19
	c-0.004,0.034-7.675,67.247-7.678,67.282c-0.192,4.701,1.077,13.643,13.554,13.643h20.606
	C301.266,455.378,299.997,446.435,300.189,441.734z"/>
<path style="fill:#F0A479;" d="M498.252,142.759c-18.77-5.337-25.378,14.71-26,16.334l-36.265,77.853l0,0
	c0,0-8.681-15.193-25.092-6.908c-45.483,22.956-51.613,25.069-59.684,33.919h-0.002c-33.413,38.078-29.009,33.841-43.121,81.183
	l81.869,9.345c9.71-11.72,13.15-18.144,26.065-24.664l36.446-18.394c6.143-3.479,18.979-12.599,23.401-29.923
	c0.002-0.008,0.005-0.014,0.005-0.02l35.237-111.104C512.009,166.864,515.457,148.255,498.252,142.759z"/>
<g>
	<path style="fill:#EA976E;" d="M371.816,253.267h0.002c0,0,2.243-2.954,5.895-6.482c-10.113,5.104-18.867,8.801-26.501,17.172
		h-0.002c-33.413,38.078-29.009,33.841-43.121,81.183l21.479,2.452C342.762,294.24,338.682,298.785,371.816,253.267z"/>
	<path style="fill:#EA976E;" d="M388.28,275.511c10.11-5.103,21.224-11.262,30.18-15.782c4.63-2.337,5.363-4.861,5.603-5.691
		c1.56-5.371-1.92-10.023-10.229-25.269c12.19-4.373,19.533,4.373,21.568,7.279c3.774,6.931,5.681,14.562,3.554,22.121
		c-1.276,4.533-4.659,10.877-13.533,15.356c-21.686,10.944-29.853,16.613-33.655,16.613
		C383.7,290.137,381.014,279.18,388.28,275.511z"/>
</g>
<path style="fill:#E8E8E8;" d="M290.216,348.564l-3.365,29.478l113.265,12.927l3.365-29.478c0.403-3.542-2.137-6.739-5.677-7.144
	l-100.448-11.464C293.818,342.481,290.621,345.021,290.216,348.564z"/>
<path style="fill:#D1D3D3;" d="M307.867,374.453L307.867,374.453c3.192-27.964,2.66-27.666,4.896-29.811l-15.406-1.758
	c-3.539-0.403-6.736,2.137-7.141,5.681l-3.365,29.478l20.341,2.322L307.867,374.453z"/>
<g>
</g>
<g>
</g>
<g>
</g>
<g>
</g>
<g>
</g>
<g>
</g>
<g>
</g>
<g>
</g>
<g>
</g>
<g>
</g>
<g>
</g>
<g>
</g>
<g>
</g>
<g>
</g>
<g>
</g>
</svg>
