<?xml version="1.0" encoding="iso-8859-1"?>
<!-- Generator: Adobe Illustrator 19.0.0, SVG Export Plug-In . SVG Version: 6.00 Build 0)  -->
<svg version="1.1" id="Capa_1" xmlns="http://www.w3.org/2000/svg" xmlns:xlink="http://www.w3.org/1999/xlink" x="0px" y="0px"
	 viewBox="0 0 390.08 390.08" style="enable-background:new 0 0 390.08 390.08;" xml:space="preserve">
<g>
	<g>
		<path d="M334.72,96.985h-240v-1.6l235.52-73.76c4.219-1.325,6.565-5.821,5.24-10.04c-1.326-4.219-5.821-6.565-10.04-5.24
			L84,81.865c-3.466,1.086-5.766,4.371-5.6,8v7.52H55.36c-25.52,0-55.36,14.48-55.36,55.36v176c0,25.52,14.48,55.36,55.36,55.36
			h279.36c40.88,0,55.36-29.84,55.36-55.36v-176C390.08,111.465,360.24,96.985,334.72,96.985z M374.08,328.345
			c0,11.84-3.84,39.36-39.36,39.36H55.36c-35.52,0-39.36-27.52-39.36-39.36v-176c0-35.52,27.52-39.36,39.36-39.36h279.36
			c11.84,0,39.36,3.84,39.36,39.36V328.345z"/>
	</g>
</g>
<g>
	<g>
		<path d="M310.24,133.305H83.6c-21.407,0-38.76,17.353-38.76,38.76s17.353,38.76,38.76,38.76h226.64
			c21.407,0,38.76-17.353,38.76-38.76S331.647,133.305,310.24,133.305z M310.24,195.065H152.4v-22.8c0-4.418-3.582-8-8-8
			s-8,3.582-8,8v22.56H83.6c-12.468-0.043-22.589-10.093-22.72-22.56c0.044-12.53,10.19-22.676,22.72-22.72h226.64
			c12.57,0,22.76,10.19,22.76,22.76S322.81,195.065,310.24,195.065z"/>
	</g>
</g>
<g>
	<g>
		<path d="M355.84,282.825c-0.263-31.725-26.034-57.317-57.76-57.36c-31.9,0.001-57.759,25.861-57.759,57.761
			c0.001,31.9,25.861,57.759,57.761,57.759c31.9-0.001,57.759-25.861,57.759-57.761C355.841,283.091,355.841,282.958,355.84,282.825
			z M298.482,324.983c-0.134,0.001-0.268,0.002-0.402,0.002c-23.063-0.001-41.759-18.698-41.758-41.762s18.698-41.759,41.762-41.758
			c22.907,0.001,41.537,18.454,41.756,41.36C340.061,305.887,321.544,324.762,298.482,324.983z"/>
	</g>
</g>
<g>
	<g>
		<path d="M191.04,257.145h-116c-4.418,0-8,3.582-8,8s3.582,8,8,8h116c4.418,0,8-3.582,8-8S195.458,257.145,191.04,257.145z"/>
	</g>
</g>
<g>
	<g>
		<path d="M191.04,293.305h-116c-4.418,0-8,3.582-8,8s3.582,8,8,8h116c4.418,0,8-3.582,8-8S195.458,293.305,191.04,293.305z"/>
	</g>
</g>
<g>
</g>
<g>
</g>
<g>
</g>
<g>
</g>
<g>
</g>
<g>
</g>
<g>
</g>
<g>
</g>
<g>
</g>
<g>
</g>
<g>
</g>
<g>
</g>
<g>
</g>
<g>
</g>
<g>
</g>
</svg>
