<svg xmlns="http://www.w3.org/2000/svg" viewBox="0 0 390.08 390.08"><path d="M334.72 96.985h-240v-1.6l235.52-73.76a8.009 8.009 0 0 0-4.8-15.28L84 81.865a8 8 0 0 0-5.6 8v7.52H55.36c-25.52 0-55.36 14.48-55.36 55.36v176c0 25.52 14.48 55.36 55.36 55.36h279.36c40.88 0 55.36-29.84 55.36-55.36v-176c0-41.28-29.84-55.76-55.36-55.76zm39.36 231.36c0 11.84-3.84 39.36-39.36 39.36H55.36c-35.52 0-39.36-27.52-39.36-39.36v-176c0-35.52 27.52-39.36 39.36-39.36h279.36c11.84 0 39.36 3.84 39.36 39.36v176z"/><path d="M310.24 133.305H83.6c-21.407 0-38.76 17.353-38.76 38.76s17.353 38.76 38.76 38.76h226.64c21.407 0 38.76-17.353 38.76-38.76s-17.353-38.76-38.76-38.76zm0 61.76H152.4v-22.8a8 8 0 0 0-16 0v22.56H83.6c-12.468-.043-22.589-10.093-22.72-22.56.044-12.53 10.19-22.676 22.72-22.72h226.64c12.57 0 22.76 10.19 22.76 22.76s-10.19 22.76-22.76 22.76zM355.84 282.825c-.263-31.725-26.034-57.317-57.76-57.36-31.9.001-57.759 25.861-57.759 57.761.001 31.9 25.861 57.759 57.761 57.759 31.9-.001 57.759-25.861 57.759-57.761l-.001-.399zm-57.358 42.158l-.402.002c-23.063-.001-41.759-18.698-41.758-41.762s18.698-41.759 41.762-41.758c22.907.001 41.537 18.454 41.756 41.36.221 23.062-18.296 41.937-41.358 42.158zM191.04 257.145h-116a8 8 0 0 0 0 16h116a8 8 0 0 0 0-16zM191.04 293.305h-116a8 8 0 0 0 0 16h116a8 8 0 0 0 0-16z"/></svg>