<?xml version="1.0" encoding="iso-8859-1"?>
<!-- Generator: Adobe Illustrator 19.0.0, SVG Export Plug-In . SVG Version: 6.00 Build 0)  -->
<svg version="1.1" id="Capa_1" xmlns="http://www.w3.org/2000/svg" xmlns:xlink="http://www.w3.org/1999/xlink" x="0px" y="0px"
	 viewBox="0 0 512 512" style="enable-background:new 0 0 512 512;" xml:space="preserve">
<path style="fill:#FF73B0;" d="M424.699,299.116c-48.137,0-87.299-39.162-87.299-87.299c0-48.138,39.162-87.301,87.299-87.301
	c48.138,0,87.301,39.163,87.301,87.301C512,259.954,472.837,299.116,424.699,299.116z M424.699,154.517
	c-31.595,0-57.299,25.705-57.299,57.301c0,31.595,25.704,57.299,57.299,57.299c31.596,0,57.301-25.704,57.301-57.299
	C482,180.222,456.295,154.517,424.699,154.517z"/>
<path style="fill:#FD0F81;" d="M424.701,124.517c0,0,0,0-0.001,0v30c0.001,0,0.001,0,0.001,0c31.595,0,57.299,25.705,57.299,57.301
	c0,31.595-25.704,57.299-57.299,57.299c0,0,0,0-0.001,0v30c0.001,0,0.001,0,0.001,0c48.137,0,87.299-39.162,87.299-87.299
	C512,163.68,472.838,124.517,424.701,124.517z"/>
<path style="fill:#91DC5A;" d="M340.35,387.483c-48.137,0-87.299-39.162-87.299-87.299c0-48.138,39.162-87.301,87.299-87.301
	c48.138,0,87.301,39.163,87.301,87.301C427.65,348.321,388.487,387.483,340.35,387.483z M340.35,242.884
	c-31.595,0-57.299,25.705-57.299,57.301c0,31.595,25.704,57.299,57.299,57.299c31.596,0,57.301-25.704,57.301-57.299
	C397.65,268.589,371.945,242.884,340.35,242.884z"/>
<path style="fill:#4CBA68;" d="M340.352,212.884c0,0,0,0-0.001,0v30c0.001,0,0.001,0,0.001,0c31.595,0,57.299,25.705,57.299,57.301
	c0,31.595-25.704,57.299-57.299,57.299c0,0,0,0-0.001,0v30c0.001,0,0.001,0,0.001,0c48.137,0,87.299-39.162,87.299-87.299
	C427.65,252.047,388.488,212.884,340.352,212.884z"/>
<path style="fill:#007175;" d="M256,299.116c-48.138,0-87.301-39.162-87.301-87.299c0-48.138,39.163-87.301,87.301-87.301
	s87.301,39.163,87.301,87.301C343.301,259.954,304.138,299.116,256,299.116z M256,154.517c-31.596,0-57.301,25.705-57.301,57.301
	c0,31.595,25.705,57.299,57.301,57.299s57.301-25.704,57.301-57.299C313.301,180.222,287.596,154.517,256,154.517z"/>
<path style="fill:#005457;" d="M256.002,124.517c0,0,0,0-0.001,0v30c0.001,0,0.001,0,0.001,0c31.595,0,57.299,25.705,57.299,57.301
	c0,31.595-25.704,57.299-57.299,57.299c0,0,0,0-0.001,0v30c0.001,0,0.001,0,0.001,0c48.137,0,87.299-39.162,87.299-87.299
	C343.301,163.68,304.139,124.517,256.002,124.517z"/>
<path style="fill:#FFCD00;" d="M171.65,387.483c-48.138,0-87.301-39.162-87.301-87.299c0-48.138,39.163-87.301,87.301-87.301
	c48.137,0,87.299,39.163,87.299,87.301C258.949,348.321,219.787,387.483,171.65,387.483z M171.65,242.884
	c-31.596,0-57.301,25.705-57.301,57.301c0,31.595,25.705,57.299,57.301,57.299c31.595,0,57.299-25.704,57.299-57.299
	C228.949,268.589,203.245,242.884,171.65,242.884z"/>
<path style="fill:#FF9811;" d="M171.65,212.884L171.65,212.884l-0.001,30c0.001,0,0.001,0,0.001,0
	c31.595,0,57.299,25.705,57.299,57.301c0,31.595-25.704,57.299-57.299,57.299c0,0,0,0-0.001,0v30c0.001,0,0.001,0,0.001,0
	c48.137,0,87.299-39.162,87.299-87.299C258.949,252.047,219.787,212.884,171.65,212.884z"/>
<path style="fill:#00DBCD;" d="M87.301,299.116C39.163,299.116,0,259.954,0,211.817c0-48.138,39.163-87.301,87.301-87.301
	c48.137,0,87.299,39.163,87.299,87.301C174.6,259.954,135.437,299.116,87.301,299.116z M87.301,154.517
	c-31.596,0-57.301,25.705-57.301,57.3s25.705,57.299,57.301,57.299c31.595,0,57.299-25.704,57.299-57.299
	C144.6,180.222,118.895,154.517,87.301,154.517z"/>
<path style="fill:#00B6BD;" d="M87.301,124.517L87.301,124.517l-0.001,30c0.001,0,0.001,0,0.001,0
	c31.595,0,57.299,25.705,57.299,57.301c0,31.595-25.704,57.299-57.299,57.299c0,0,0,0-0.001,0v30c0.001,0,0.001,0,0.001,0
	c48.137,0,87.299-39.162,87.299-87.299C174.6,163.68,135.437,124.517,87.301,124.517z"/>
<g>
</g>
<g>
</g>
<g>
</g>
<g>
</g>
<g>
</g>
<g>
</g>
<g>
</g>
<g>
</g>
<g>
</g>
<g>
</g>
<g>
</g>
<g>
</g>
<g>
</g>
<g>
</g>
<g>
</g>
</svg>
