<svg xmlns="http://www.w3.org/2000/svg" viewBox="0 0 511.999 511.999"><path d="M420.144 400.923H37.649c-16.459 0-29.802-13.343-29.802-29.802V67.356c0-16.459 13.343-29.802 29.802-29.802h382.495c16.459 0 29.802 13.343 29.802 29.802v303.765c0 16.459-13.343 29.802-29.802 29.802z" fill="#e9ebf2"/><path d="M449.946 109.219V67.356c0-16.459-13.343-29.802-29.802-29.802H37.649c-16.459 0-29.802 13.343-29.802 29.802v41.863h442.099z" fill="#00aaf0"/><path d="M137.258 338.679l-10.068-1.269a82.14 82.14 0 0 0-7.348-17.724l6.237-8.019a10.089 10.089 0 0 0-.829-13.329l-15.997-15.997a10.09 10.09 0 0 0-13.321-.836l-8.038 6.238a82.134 82.134 0 0 0-17.622-7.317l-1.26-10.082A10.09 10.09 0 0 0 59 261.505H36.379a10.09 10.09 0 0 0-10.011 8.828L25.1 280.401a82.093 82.093 0 0 0-17.252 7.093v43.498c8.951-12.278 23.436-20.263 39.793-20.263 27.185 0 49.223 22.038 49.223 49.223 0 17.094-8.717 32.147-21.944 40.972h45.487l-.557-.717a82.147 82.147 0 0 0 7.317-17.621l10.082-1.26a10.09 10.09 0 0 0 8.839-10.012v-22.625a10.094 10.094 0 0 0-8.83-10.01z" fill="#c7cad3"/><path d="M74.919 400.923h21.763c9.321-11.315 14.919-25.811 14.919-41.616 0-36.174-29.325-65.5-65.5-65.5-14.284 0-27.489 4.586-38.254 12.347v24.838c8.951-12.278 23.436-20.263 39.793-20.263 27.185 0 49.222 22.038 49.222 49.223.001 17.093-8.716 32.146-21.943 40.971z" fill="#b0b6c1"/><path d="M277.563 359.507l-36.231 7.095c-23.282 4.558-42.181 17.302-53.106 34.321h47.52a59.518 59.518 0 0 1 11.617-3.514l36.231-7.095c23.82-4.664 40.457-23.051 40.457-44.714v-25.741l-7.319-4.619c-16.909-10.67-27.004-28.944-27.004-48.883h-15.696v-3.556h-13.255v-35.23l13.318-.076v-17.16l-.079-.786a70.66 70.66 0 0 1 10.396-44.602l.193-.317c5.01-8.464 10.858-15.571 17.381-21.122 22.054-18.766 48.094-18.007 48.252-17.992 16.312.842 31.929 8.374 46.416 22.386 10.537 10.192 18.967 23.993 25.149 41.143l-16.537 6.64v31.895h28.952v35.221h-13.256v3.556h-15.696a57.677 57.677 0 0 1-8.021 29.357l-2.773 4.686-3.627 4.116a58.188 58.188 0 0 1-10.377 9.263l-6.721 4.684V345.6c0 21.664 16.637 40.051 40.457 44.714l23.807 4.662c7.247-5.436 11.937-14.097 11.937-23.855v-5.796l-29.713-5.818c-8.748-1.713-15.097-7.562-15.097-13.907v-11.244a89.032 89.032 0 0 0 4.169-3.768h1.154c16.699 0 31.353-8.899 39.487-22.2V174.727c-7.724-20.043-18.26-36.611-31.471-49.391-25.033-24.211-50.045-30.314-66.619-31.17-1.554-.075-38.382-1.652-70.215 25.435-9.133 7.772-17.193 17.489-23.958 28.882a101.929 101.929 0 0 0-13.292 33.211 101.816 101.816 0 0 0-2.119 19.454c-7.763 5.236-12.887 14.112-12.887 24.132v39.82c0 16.041 13.05 29.092 29.091 29.092h4.272c5.451 16.674 15.768 31.455 29.912 42.459v8.949c-.002 6.345-6.351 12.194-15.099 13.907z" fill="#dfe2ea"/><path d="M351.859 94.166c-1.32-.063-28.088-1.201-55.628 15.053H398.02c-17.683-11.045-34.141-14.432-46.161-15.053z" fill="#0398e2"/><path d="M453.449 382.005l-36.232-7.094c-16.27-3.186-27.777-15.328-27.777-29.311v-34.369h-81.086v34.368c0 13.983-11.507 26.125-27.777 29.311l-36.231 7.094c-29.698 5.815-50.701 27.978-50.701 53.501v38.937H504.15v-38.937c0-25.522-21.003-47.685-50.701-53.5z" fill="#ffe1b3"/><path fill="#b48765" d="M258.4 199.659h17.396v24.459H258.4z"/><path d="M347.495 357.319c15.595 0 30.052-4.863 41.945-13.15V311.23h-81.086v34.369c0 .142-.008.282-.011.424 11.336 7.153 24.759 11.296 39.152 11.296z" fill="#f0c891"/><path d="M347.496 339.82c-40.573 0-73.464-32.891-73.464-73.464v-60.06c0-40.573 32.891-73.464 73.464-73.464s73.464 32.891 73.464 73.464v60.06c0 40.573-32.891 73.464-73.464 73.464z" fill="#ffe1b3"/><path d="M361.038 134.083c18.639 13.324 30.789 35.144 30.789 59.802v60.06c0 40.573-32.891 73.464-73.464 73.464a73.79 73.79 0 0 1-13.543-1.251c12.029 8.599 26.761 13.661 42.675 13.661 40.573 0 73.464-32.891 73.464-73.464v-60.06c.001-35.945-25.818-65.856-59.921-72.212z" fill="#fad7a5"/><path d="M271.096 156.635a86.595 86.595 0 0 0-11.337 28.248 86.553 86.553 0 0 0-1.283 27c8.938-2.206 15.913-5.364 20.746-7.961 1.907-1.025 11.334-6.183 21.167-15.709l-29.293-31.578z" fill="#b48765"/><path d="M441.105 198.207c-6.256-23.175-16.644-45.242-33.541-61.586-5.477-5.298-26.058-25.206-56.52-26.78 0 0-31.786-1.642-59.233 21.713-8.281 7.046-15.099 15.589-20.716 25.08 25.547 36.551 63.872 59.795 106.725 59.795 10.553 0 32.602-3.219 43.139-10.133" fill="#966d50"/><path d="M407.565 136.621c-5.477-5.298-26.058-25.206-56.52-26.78 0 0-9.016-.465-21.591 2.628 21.54 5.938 35.929 19.854 40.373 24.152 16.897 16.344 27.285 38.411 33.541 61.586l-20.146 8.089c-6.119 4.016-16.121 6.782-25.5 8.398a117.412 117.412 0 0 0 20.098 1.735c10.553 0 52.748-.936 63.284-7.85v-10.372c-6.255-23.175-16.642-45.242-33.539-61.586z" fill="#846047"/><path d="M436.515 278.496H420.96v-66.612h15.556c7.398 0 13.396 5.997 13.396 13.396v39.821c-.001 7.397-5.999 13.395-13.397 13.395z" fill="#53515e"/><path fill="#474756" d="M420.96 211.879h11.17v66.61h-11.17z"/><path d="M258.476 211.883h15.556v66.612h-15.556c-7.398 0-13.396-5.997-13.396-13.396v-39.82c0-7.398 5.998-13.396 13.396-13.396z" fill="#53515e"/><path fill="#474756" d="M263.23 211.879h10.797v66.61H263.23z"/><path d="M453.449 382.005l-36.232-7.094c-5.632-1.103-10.691-3.28-14.902-6.234-14.283 12.471-32.967 20.029-53.418 20.029s-39.135-7.557-53.418-20.029c-4.211 2.954-9.27 5.131-14.902 6.234l-36.231 7.094c-29.698 5.815-50.701 27.978-50.701 53.501v38.937H504.15v-38.937c0-25.523-21.003-47.686-50.701-53.501z" fill="#ff9ea4"/><path d="M213.904 395.825c-12.597 10.101-20.258 24.276-20.258 39.682v38.937h58.845v-35.978c0-22.227-16.923-40.499-38.587-42.641zm269.988 0c-21.664 2.142-38.587 20.414-38.587 42.641l.062 35.978h58.783v-38.937c0-15.407-7.661-29.581-20.258-39.682z" fill="#ff7b97"/><path d="M295.287 73.891a7.848 7.848 0 0 0-7.848-7.848H156.223a7.848 7.848 0 1 0 0 15.696h131.216a7.848 7.848 0 0 0 7.848-7.848z"/><circle cx="47.21" cy="73.891" r="9.429"/><circle cx="83.55" cy="73.891" r="9.429"/><circle cx="117.87" cy="73.891" r="9.429"/><circle cx="411.59" cy="73.891" r="9.429"/><path d="M457.601 374.871c.123-1.242.192-2.492.192-3.749V67.356c0-20.76-16.89-37.649-37.649-37.649H37.649C16.889 29.707 0 46.596 0 67.356v303.766c0 20.76 16.889 37.649 37.649 37.649h130.239a7.848 7.848 0 1 0 0-15.696h-36.003c.434-1.102.853-2.21 1.243-3.327l5.094-.636c8.958-1.121 15.712-8.773 15.712-17.8v-22.623c0-9.017-6.747-16.668-15.693-17.798h-.001l-5.08-.64a90.328 90.328 0 0 0-4.031-9.723l3.144-4.043c5.545-7.125 4.912-17.313-1.473-23.698l-15.997-15.997c-6.376-6.376-16.558-7.015-23.681-1.486l-4.064 3.154a90.303 90.303 0 0 0-9.619-3.995l-.636-5.093c-1.119-8.959-8.771-15.714-17.799-15.714H36.379c-9.018 0-16.669 6.747-17.797 15.695l-.64 5.081c-.754.262-1.499.553-2.247.835v-158.2h217.067a7.848 7.848 0 1 0 0-15.696H15.696V67.356c0-12.105 9.848-21.953 21.953-21.953h382.495c12.105 0 21.954 9.849 21.954 21.953v34.015H271.096a7.848 7.848 0 1 0 0 15.696h27.297a97.138 97.138 0 0 0-11.667 8.509c-8.466 7.205-15.959 16.251-22.278 26.888l-.009.013-.031.053-.065.106-.013.025a94.112 94.112 0 0 0-14.156 53.065c-7.6 3.239-12.942 10.783-12.942 19.552v39.821c0 11.713 9.53 21.243 21.244 21.243h10.2c4.812 18.967 16.316 35.282 31.831 46.311v12.946c0 6.382-3.419 12.234-9.044 16.339a7.908 7.908 0 0 0-.774.524c-3.269 2.219-7.203 3.882-11.619 4.746l-36.232 7.094c-33.585 6.577-57.041 31.745-57.041 61.204v38.938a7.848 7.848 0 0 0 7.848 7.848h310.506a7.848 7.848 0 0 0 7.848-7.848v-38.938c.001-28.679-22.233-53.284-54.398-60.635zm-441.905-3.75v-37.448c7.831-9.496 19.596-15.097 31.945-15.097 22.814 0 41.375 18.561 41.375 41.375 0 13.1-6.169 25.315-16.601 33.124H37.649c-12.105 0-21.953-9.849-21.953-21.954zm11.539-83.168a7.847 7.847 0 0 0 5.651-6.57l1.269-10.067a2.246 2.246 0 0 1 2.225-1.962h22.623c1.128 0 2.085.844 2.225 1.964l1.26 10.082a7.846 7.846 0 0 0 5.643 6.577 74.393 74.393 0 0 1 15.939 6.62 7.848 7.848 0 0 0 8.639-.652l8.037-6.238a2.247 2.247 0 0 1 2.96.185l15.997 15.998c.798.797.877 2.07.183 2.961l-6.237 8.018a7.848 7.848 0 0 0-.656 8.647 74.436 74.436 0 0 1 6.647 16.031 7.848 7.848 0 0 0 6.57 5.651l10.067 1.269a2.246 2.246 0 0 1 1.962 2.225v22.623a2.247 2.247 0 0 1-1.963 2.225l-10.082 1.259a7.849 7.849 0 0 0-6.577 5.644 74.182 74.182 0 0 1-4.879 12.635H94.122a56.965 56.965 0 0 0 10.589-33.124c0-31.469-25.601-57.07-57.07-57.07-11.489 0-22.609 3.512-31.945 9.814v-20.403a73.544 73.544 0 0 1 11.539-4.342zm379.874 74.51a7.805 7.805 0 0 0-.777-.527c-5.624-4.106-9.042-9.956-9.042-16.338v-15.03a81.977 81.977 0 0 0 13.838-13.68c14.784-.298 27.194-10.411 30.97-24.081v78.313c0 .22-.021.438-.027.658l-23.343-4.57c-4.415-.864-8.349-2.527-11.619-4.745zm21.7-142.733h7.708a5.554 5.554 0 0 1 5.548 5.548v39.821a5.555 5.555 0 0 1-5.548 5.548h-7.708V219.73zm-1.387 66.612a17.05 17.05 0 0 1-3.887 8.78 80.664 80.664 0 0 0 2.781-8.78h1.106zm14.676-169.275v59.107c-7.258-18.356-16.993-33.509-29.078-45.198-5.566-5.384-11.315-10.011-17.224-13.909h46.302zm-145.2 20.462c24.581-20.917 53.479-19.861 53.743-19.852 18.261.943 35.578 9.214 51.468 24.583 14.159 13.696 24.73 33.207 31.421 57.992a7.809 7.809 0 0 0 2.329 3.783h-7.385a7.848 7.848 0 0 0-7.514-5.587 7.81 7.81 0 0 0-3.962 1.081 4.97 4.97 0 0 0-.344.205c-8.352 5.481-28.247 8.846-38.833 8.846-25.934 0-50.914-9.265-72.121-26.183l-24.751-26.68c4.737-7.087 10.081-13.194 15.949-18.188zm-21.391 59.479a78.949 78.949 0 0 1-3.288 1.658 7.784 7.784 0 0 0-2.749 1.252 80.393 80.393 0 0 1-3.657 1.489 78.42 78.42 0 0 1 1.631-14.931 78.354 78.354 0 0 1 4.856-15.255c5.054 6.194 10.447 11.9 16.136 17.084-5.767 4.64-10.685 7.497-12.929 8.703zm-9.323 73.638h-7.708a5.554 5.554 0 0 1-5.548-5.548v-39.821a5.555 5.555 0 0 1 5.548-5.548h7.708v50.917zm15.696-4.292v-54.975c.352-.183.708-.359 1.058-.547 3.001-1.612 10.011-5.697 17.869-12.405 22.883 16.738 49.43 25.847 77.016 25.847 8.733 0 23.359-1.887 35.291-5.857v47.937a65.201 65.201 0 0 1-10.063 34.856h-47.954a7.848 7.848 0 1 0 0 15.696h34.187c-11.358 9.405-25.923 15.065-41.787 15.065-36.181 0-65.617-29.435-65.617-65.617zm65.617 81.313a80.804 80.804 0 0 0 34.098-7.522v5.454c0 8.416 3.117 16.244 8.514 22.583a73.356 73.356 0 0 1-41.209 12.676 73.353 73.353 0 0 1-41.209-12.676c5.397-6.339 8.514-14.167 8.514-22.583v-4.203a80.852 80.852 0 0 0 31.292 6.271zm148.807 118.929h-43.088V453.38a7.848 7.848 0 1 0-15.696 0v13.216H260.339V453.38a7.848 7.848 0 1 0-15.696 0v13.216h-43.149v-31.09c0-21.852 18.242-40.686 44.361-45.8l36.232-7.094c4.595-.9 8.868-2.396 12.733-4.374a89.03 89.03 0 0 0 54.078 18.315 89.038 89.038 0 0 0 54.079-18.315c3.866 1.978 8.139 3.474 12.734 4.374l36.231 7.094c26.119 5.114 44.361 23.948 44.361 45.8v31.09h.001z"/><path d="M347.049 297.598c-8.915 0-17.83-3.394-24.617-10.18a7.5 7.5 0 0 1 0-10.606 7.5 7.5 0 0 1 10.606-.001c7.726 7.727 20.295 7.728 28.021 0a7.5 7.5 0 0 1 10.606.001 7.5 7.5 0 0 1 0 10.606c-6.786 6.786-15.701 10.18-24.616 10.18z"/><circle cx="319.36" cy="234.959" r="8.143"/><circle cx="374.73" cy="234.959" r="8.143"/><path d="M79.223 146.242c-2.021-.957-4.345-1.437-6.968-1.437-2.625 0-4.947.479-6.968 1.437-2.021.957-3.316 2.324-3.883 4.096l-19.787 64.893c-.143.568-.214.957-.214 1.17 0 1.845 1.153 3.442 3.458 4.787 2.304 1.348 4.697 2.021 7.181 2.021 3.049 0 4.857-1.027 5.426-3.085l3.616-13.297h22.447l3.617 13.297c.567 2.058 2.376 3.085 5.426 3.085 2.481 0 4.875-.673 7.181-2.021 2.303-1.346 3.457-2.942 3.457-4.787 0-.213-.072-.602-.213-1.17l-19.893-64.893c-.568-1.772-1.861-3.138-3.883-4.096zm-14.734 47.82l7.766-28.512 7.766 28.512H64.489zm73.085-48.618h-22.022c-1.844 0-3.334.497-4.468 1.49-1.135.993-1.702 2.163-1.702 3.51v67.66c0 1.632.814 2.891 2.446 3.777 1.631.888 3.581 1.329 5.851 1.329s4.219-.441 5.851-1.329c1.631-.886 2.447-2.145 2.447-3.777v-22.978h10.531c7.873 0 14.203-2.004 18.99-6.01s7.181-10.23 7.181-18.671v-.531c0-8.439-2.287-14.628-6.862-18.564-4.573-3.938-10.656-5.906-18.243-5.906zm8.51 26.277c0 7.093-3.191 10.638-9.575 10.638h-10.531v-22.447h10.531c6.383 0 9.575 3.547 9.575 10.638v1.171zm40.424-21.277c0-1.631-.816-2.872-2.447-3.724-1.632-.851-3.582-1.276-5.851-1.276-2.271 0-4.22.425-5.851 1.276-1.632.851-2.446 2.093-2.446 3.724v67.66c0 1.632.814 2.891 2.446 3.777 1.631.888 3.581 1.329 5.851 1.329s4.219-.441 5.851-1.329c1.631-.886 2.447-2.145 2.447-3.777v-67.66z"/></svg>