<svg xmlns="http://www.w3.org/2000/svg" viewBox="0 0 64 64"><g fill-rule="evenodd" clip-rule="evenodd"><path d="M36.91 47.814V5.466C36.91 2.452 34.708 0 32 0c-2.708 0-4.91 2.452-4.91 5.466v42.348a8.872 8.872 0 0 0-3.927 7.347C23.163 60.035 27.127 64 32 64c4.874 0 8.837-3.965 8.837-8.839 0-2.95-1.49-5.713-3.926-7.347zM32 62c-3.77 0-6.837-3.068-6.837-6.839a6.866 6.866 0 0 1 3.426-5.926 1 1 0 0 0 .5-.866V5.466C29.09 3.555 30.395 2 32 2s2.91 1.555 2.91 3.466v42.903a1 1 0 0 0 .5.866 6.867 6.867 0 0 1 3.427 5.926C38.837 58.931 35.77 62 32 62z"/><path d="M33.14 51.107V20.324h-2.588v30.878a3.921 3.921 0 0 0-2.478 3.64 3.925 3.925 0 0 0 3.924 3.923 3.925 3.925 0 0 0 3.923-3.923c0-1.766-1.177-3.243-2.782-3.735z"/></g></svg>