<svg xmlns="http://www.w3.org/2000/svg" viewBox="0 0 64 64"><path d="M16.514 24.154c5.327 0 10.651-1.835 16.045-5.503 9.075-6.175 20.53-6.173 29.893.008a.997.997 0 0 0 1.384-.292 1.013 1.013 0 0 0-.288-1.396c-10.049-6.63-22.352-6.628-32.109.008-10.035 6.826-19.81 6.827-29.88 0a.996.996 0 0 0-1.39.274 1.013 1.013 0 0 0 .273 1.399c5.412 3.668 10.744 5.502 16.072 5.502zM63.548 30.894c-10.05-6.631-22.353-6.628-32.109.008-10.036 6.828-19.81 6.827-29.88-.001a.994.994 0 0 0-1.389.275 1.013 1.013 0 0 0 .272 1.398c5.412 3.668 10.743 5.503 16.07 5.503 5.328 0 10.652-1.835 16.047-5.504 9.074-6.175 20.53-6.171 29.893.008a.997.997 0 0 0 1.385-.291 1.014 1.014 0 0 0-.29-1.396zM63.548 44.817c-10.05-6.63-22.352-6.626-32.109.008-10.034 6.828-19.808 6.83-29.88-.001a.995.995 0 0 0-1.389.274 1.013 1.013 0 0 0 .272 1.4C5.854 50.165 11.186 52 16.514 52c5.327 0 10.651-1.835 16.044-5.504 9.076-6.173 20.53-6.171 29.894.008a.997.997 0 0 0 1.385-.291 1.014 1.014 0 0 0-.29-1.396z"/></svg>