<svg xmlns="http://www.w3.org/2000/svg" xmlns:xlink="http://www.w3.org/1999/xlink" viewBox="0 0 18 18"><defs><path id="a" d="M0 0h18v18H0z"/></defs><clipPath id="b"><use xlink:href="#a" overflow="visible"/></clipPath><path d="M15 11c-.018 0-.033.005-.05.005A3.49 3.49 0 0 0 11.5 8 3.5 3.5 0 0 0 8 11.5a.5.5 0 0 1-1 0c0-.495.1-.962.248-1.408A3.287 3.287 0 0 0 6.5 10a3.5 3.5 0 1 0 0 7H15a3 3 0 0 0 0-6" clip-path="url(#b)" fill-rule="evenodd" clip-rule="evenodd" fill="#dddcdc"/><path d="M7.771 9A4.493 4.493 0 0 1 11.5 7c.743 0 1.449.189 2.074.52.265-.448.426-.963.426-1.52a3 3 0 0 0-3-3c-.273 0-.533.048-.785.117A3.504 3.504 0 0 0 7 1a3.5 3.5 0 0 0-3.213 2.118A2.931 2.931 0 0 0 3 3a3 3 0 0 0 0 6h4.771z" clip-path="url(#b)" fill-rule="evenodd" clip-rule="evenodd" fill="#dddcdc"/></svg>