<svg xmlns="http://www.w3.org/2000/svg" xmlns:xlink="http://www.w3.org/1999/xlink" viewBox="0 0 18 18"><defs><path id="a" d="M0 0h18v18H0z"/></defs><clipPath id="b"><use xlink:href="#a" overflow="visible"/></clipPath><path d="M10 13a1 1 0 1 1-2 0 1 1 0 1 1 2 0M6 13a1 1 0 1 1-2 0 1 1 0 1 1 2 0M14 13a1 1 0 1 1-2 0 1 1 0 1 1 2 0" clip-path="url(#b)" fill="#02afbe"/><path d="M14.5 4c-.213 0-.42.026-.622.062A3.995 3.995 0 0 0 10 1a4 4 0 0 0-4 4 .5.5 0 0 1-1 0c0-.622.128-1.212.337-1.762A3.978 3.978 0 0 0 4 3a4 4 0 0 0 0 8h10.5a3.5 3.5 0 1 0 0-7" clip-path="url(#b)" fill-rule="evenodd" clip-rule="evenodd" fill="#bebdbd"/><path d="M8 16a1 1 0 1 1-2 0 1 1 0 1 1 2 0M12 16a1 1 0 1 1-2 0 1 1 0 1 1 2 0" clip-path="url(#b)" fill="#02afbe"/></svg>