<svg xmlns="http://www.w3.org/2000/svg" xmlns:xlink="http://www.w3.org/1999/xlink" viewBox="0 0 18 18"><defs><path id="a" d="M0 0h18v18H0z"/></defs><clipPath id="b"><use xlink:href="#a" overflow="visible"/></clipPath><path d="M14.5 3c-.213 0-.42.026-.623.062A3.995 3.995 0 0 0 10 0a4 4 0 0 0-4 4 .5.5 0 0 1-1 0c0-.622.127-1.212.336-1.762A3.973 3.973 0 0 0 4 2a4 4 0 0 0 0 8h10.5a3.5 3.5 0 1 0 0-7" clip-path="url(#b)" fill-rule="evenodd" clip-rule="evenodd" fill="#bebdbd"/><path clip-path="url(#b)" fill-rule="evenodd" clip-rule="evenodd" fill="#dbbd45" d="M11.057 11H7.143L5 14h2.855L5 18l8-5.143H9.57z"/></svg>