<svg xmlns="http://www.w3.org/2000/svg" viewBox="0 0 441.996 441.996"><path d="M439.03 46.306C409.169 16.445 369.466 0 327.236 0c-42.231 0-81.935 16.445-111.795 46.307a10 10 0 0 0 7.071 17.071c7.341 0 12.861 2.327 16.876 7.113 7.237 8.628 9.313 25.318 5.695 45.79-3.404 19.27-10.214 37.422-20.278 54.096l-24.958-17.871-.004-.003-24.719-17.7c-4.489-3.215-10.737-2.182-13.953 2.309-3.215 4.49-2.182 10.737 2.308 13.953l15.136 10.839-15.612 15.612-10.839-15.137c-3.215-4.489-9.462-5.523-13.952-2.309-4.491 3.216-5.524 9.463-2.309 13.953l17.703 24.723 18.095 25.271c-17.032 10.517-35.642 17.603-55.458 21.104-6.633 1.172-12.894 1.767-18.606 1.767-11.442.001-20.586-2.374-26.445-6.868-5.284-4.054-7.852-9.768-7.852-17.471a10.001 10.001 0 0 0-17.071-7.071c-61.644 61.644-61.644 161.945-.001 223.59a10.004 10.004 0 0 0 10.042 2.478 10 10 0 0 0 6.864-7.738c2.771-15.045 9.978-28.74 20.843-39.606 14.241-14.24 33.176-22.083 53.318-22.083 11.316 0 22.655 2.583 32.791 7.469a10 10 0 0 0 14.28-7.886c2.084-18.458 10.129-35.157 23.264-48.291 15.341-15.341 35.741-23.79 57.443-23.79a81.4 81.4 0 0 1 26.067 4.27 10 10 0 1 0 12.672-12.672c-9.955-29.516-2.476-61.515 19.521-83.511 13.135-13.135 29.833-21.18 48.291-23.265a9.999 9.999 0 0 0 7.886-14.28c-13.909-28.853-8.036-63.457 14.614-86.107 10.865-10.865 24.562-18.072 39.606-20.843a10 10 0 0 0 5.26-16.907zm-59.01 23.606c-25.564 25.565-34.235 63.165-23.313 96.897-17.953 4.346-34.181 13.457-47.479 26.754-23.278 23.278-33.511 55.541-28.469 87.262a101.833 101.833 0 0 0-15.648-1.206c-27.044 0-52.467 10.529-71.585 29.647-13.301 13.301-22.414 29.533-26.758 47.493a96.244 96.244 0 0 0-29.434-4.643c-25.484 0-49.442 9.923-67.46 27.941-9.168 9.168-16.278 19.934-21.037 31.739-38.236-49.341-38.415-118.843-.526-168.366 2.593 4.794 6.18 8.982 10.709 12.457 9.516 7.299 22.509 11 38.619 10.999 6.875 0 14.306-.697 22.085-2.071 26.05-4.604 50.247-14.704 71.919-30.021a10 10 0 0 0 2.359-13.988l-19.196-26.809 20.292-20.293 26.578 19.031a9.998 9.998 0 0 0 14.042-2.436c14.782-21.337 24.56-45.069 29.06-70.538 4.785-27.084 1.305-48.565-10.067-62.123-3.24-3.863-7.048-6.973-11.338-9.29C267.338 29.958 296.521 20 327.236 20c31.002 0 60.446 10.147 84.538 28.87-11.811 4.759-22.582 11.871-31.754 21.042z"/></svg>