<svg xmlns="http://www.w3.org/2000/svg" viewBox="0 0 511.997 511.997"><path d="M220.089 242.291s-43.325-5.576-42.804 41.833c0 0-42.721-16.15-48.972 29.175 0 0-53.14 8.336-48.972 61.476s62.518 44.284 74.501 37.511c0 0 20.318 59.913 101.592 21.36 0 0 6.252 40.116 81.273 31.259l32.301 39.595h11.462l-12.504-63.039s30.217 4.168 32.301-28.133c0 0 33.343-38.032-17.192-60.955 0 0 16-105.395-89.609-102.634-.002 0-24.322-38.862-73.377-7.448z" fill="#ff3c63"/><path d="M380.468 504.5h-11.462l-32.301-39.595c-75.022 8.857-81.273-31.259-81.273-31.259-81.273 38.553-101.592-21.36-101.592-21.36-11.983 6.773-70.333 15.63-74.501-37.511-.604-7.752 0-14.556 1.5-20.506 10.159 42.273 61.81 34.124 73 27.8 0 0 20.318 59.913 101.592 21.36 0 0 6.252 40.116 81.273 31.259l32.301 39.595h5.47l5.993 30.217z" fill="#ea2f5c"/><path d="M351.096 95.524c0-48.614-39.409-88.024-88.023-88.024-48.375-.001-87.608 38.88-88.022 87.253-.19 22.225 7.858 42.566 21.274 58.155 18.192 21.138 28.293 48.044 28.293 75.933v13.14h76.908v-13.137c0-28.041 10.394-54.926 28.58-76.271 13.09-15.363 20.99-35.283 20.99-57.049z" fill="#ffda2d"/><path d="M217.218 149.047c18.194 21.135 28.296 48.039 28.296 75.93v17.005h-20.895v-13.143c0-27.891-10.102-54.795-28.296-75.929-13.411-15.586-21.457-35.928-21.273-58.159.396-46.49 36.656-84.216 82.427-87.073-35.449 11.143-61.201 44.066-61.533 83.211-.192 22.221 7.854 42.563 21.274 58.158zm91.708 0c-18.194 21.135-28.296 48.039-28.296 75.93v17.005h20.895v-13.143c0-27.891 10.102-54.795 28.296-75.929 13.411-15.586 21.457-35.928 21.273-58.159-.396-46.49-36.656-84.216-82.427-87.073 35.449 11.143 61.201 44.066 61.533 83.211.192 22.221-7.854 42.563-21.274 58.158z" fill="#ffe571"/><path fill="#e0e0e3" d="M220.088 241.98h85.967v56.997h-85.967z"/><path d="M340.959 315.353c1.629.707-2.126-3.087-3.193-4.514-36.367-48.65-75.266-8.626-75.266-8.626-47.722-35.24-77.315 22.439-77.315 22.439s44.545-33.695 75.804 6.125c0-.001 24.66-39.422 79.97-15.424z" fill="#ff557e"/><path d="M385.552 233.251l51.009-8.44-42.568-42.569zm-225.484 0l-51.008-8.44 42.568-42.569z" fill="#00ddc0"/><path d="M103.536 330.767a7.468 7.468 0 0 0 4.075-1.209c10.76-6.979 21.774-8.835 21.863-8.85a7.5 7.5 0 0 0 6.268-6.385c1.514-10.974 5.499-18.466 11.845-22.267 11.148-6.674 26.911-.966 27.046-.917a7.502 7.502 0 0 0 10.152-7.098c-.136-12.337 3.006-21.474 9.339-27.156 5.724-5.136 13.18-6.724 18.464-7.15v37.87c-21.567 9.695-33.515 32.531-34.075 33.622a7.492 7.492 0 0 0 3.238 10.083 7.462 7.462 0 0 0 3.427.835 7.51 7.51 0 0 0 6.674-4.056c.125-.241 12.762-24.217 33.203-28.965 10.421-2.42 21.518.649 32.99 9.121a7.5 7.5 0 0 0 9.833-.806c.144-.146 14.535-14.708 32.621-13.084 12.258 1.108 23.774 9.578 34.23 25.174a7.501 7.501 0 0 0 12.459-8.353c-10.013-14.934-21.29-24.678-33.631-29.135v-23.838c16.984 2.267 30.715 8.341 40.871 18.116a7.476 7.476 0 0 0 5.2 2.097c1.968 0 3.933-.77 5.404-2.299a7.499 7.499 0 0 0-.202-10.604c-12.924-12.44-30.16-19.958-51.273-22.418v-1.115a7.5 7.5 0 0 0-4.531-6.887v-6.25c0-25.771 9.514-51.13 26.789-71.406 11.021-12.936 18.396-28.582 21.331-45.248a7.502 7.502 0 0 0-6.086-8.688 7.495 7.495 0 0 0-8.688 6.086c-2.471 14.037-8.687 27.219-17.976 38.121-19.585 22.987-30.371 51.802-30.371 81.135v5.637h-10.243v-26.96c0-4.143-3.357-7.5-7.5-7.5s-7.5 3.357-7.5 7.5v1.257H257.36v-1.257c0-4.143-3.357-7.5-7.5-7.5s-7.5 3.357-7.5 7.5v26.961h-10.242v-5.639c0-29.562-10.692-58.266-30.108-80.826a80.455 80.455 0 0 1-19.458-53.197c.376-44.013 36.498-79.82 80.521-79.819 39.477 0 72.872 28.206 79.405 67.067a7.501 7.501 0 0 0 14.793-2.487c-3.701-22.012-15.136-42.158-32.199-56.729C307.814 8.116 285.796 0 263.073 0h-.002c-25.387 0-49.279 9.823-67.274 27.659-17.996 17.839-28.027 41.645-28.245 67.03a95.455 95.455 0 0 0 23.089 63.111c17.074 19.839 26.478 45.069 26.478 71.041v5.764c-6.918-.137-21.554.927-32.884 11.002-7.845 6.977-12.525 16.72-13.971 29.044-8.092-1.347-19.933-1.672-30.281 4.476-9.311 5.533-15.418 14.929-18.197 27.971-5.305 1.433-13.829 4.356-22.338 9.876a7.5 7.5 0 0 0 4.088 13.793zm195.022-81.286v10.874h-70.97v-10.874h70.97zm-36.614 43.264c-11.498-7.269-23.011-10.342-34.356-9.199v-8.19h70.97v3.884c-16.44-.307-29.823 8.147-36.614 13.505zm-4.583-68.969h11.422v10.704h-11.422v-10.704z"/><path d="M391.078 347.937c.796-10.362 1.168-33.481-8.136-55.593a7.501 7.501 0 0 0-13.826 5.818c10.548 25.066 6.582 52.818 6.542 53.085a7.502 7.502 0 0 0 4.316 7.956c13.396 6.077 21.166 13.602 23.091 22.365 2.951 13.437-8.343 26.703-8.439 26.815a7.504 7.504 0 0 0-1.845 4.462c-.493 7.646-2.868 13.279-7.058 16.744-3.719 3.076-8.371 4.114-11.826 4.425l-6.974-29.202a7.5 7.5 0 0 0-14.59 3.484l8.304 34.774 10.301 51.933-28.422-34.84a7.484 7.484 0 0 0-6.69-2.707c-65.302 7.715-72.584-22.984-72.99-25.012-.313-2.366-1.72-4.337-3.815-5.485-2.108-1.155-4.63-1.119-6.804-.09-26.821 12.723-49.126 15.544-66.296 8.381-18.616-7.766-24.93-25.234-24.979-25.374a7.504 7.504 0 0 0-4.428-4.598 7.492 7.492 0 0 0-6.365.478c-5.137 2.901-28.646 8.138-45.689-.933-10.554-5.616-16.49-15.924-17.645-30.636-.647-8.257.219-15.775 2.576-22.347a7.501 7.501 0 0 0-4.527-9.592 7.504 7.504 0 0 0-9.592 4.527c-3.078 8.582-4.226 18.199-3.411 28.585 1.97 25.104 14.982 37.079 25.552 42.703 17.141 9.122 39.417 7.72 52.63 3.771 4.334 7.831 13.382 20.18 29.81 27.135 19.574 8.284 43.538 6.532 71.322-5.197 6.522 12.927 25.959 34.559 82.291 29.025l29.729 36.441a7.502 7.502 0 0 0 5.812 2.759h11.462a7.5 7.5 0 0 0 7.357-8.959l-10.771-54.307c5.436-.725 12.205-2.666 18.076-7.46 7.083-5.781 11.253-14.201 12.414-25.054 4.058-5.402 13.884-20.674 10.199-37.744-2.677-12.393-11.638-22.649-26.666-30.536z"/><path d="M145.526 350.773c-9.719.518-15.935 7.329-16.611 8.104l5.649 4.934 5.584 5.007c.018-.02 1.827-1.953 4.428-2.749 1.891-.577 4.926-.873 9.381 3.248a7.473 7.473 0 0 0 5.091 1.994 7.5 7.5 0 0 0 5.095-13.006c-7.204-6.663-14.109-7.78-18.617-7.532zm177.326 1.038c8.573-3.275 18.144-2.545 28.444 2.172a7.497 7.497 0 0 0 9.941-3.697 7.499 7.499 0 0 0-3.697-9.941c-14.145-6.476-27.657-7.314-40.163-2.499-14.579 5.615-24.085 17.671-29.059 25.663-11.411-6.231-22.908-7.304-32.165-6.564-16.916 1.364-29.713 9.006-30.249 9.33-3.536 2.14-4.664 6.731-2.536 10.273 2.129 3.542 6.73 4.688 10.282 2.572 1.65-.986 40.717-23.664 66.093 15.857a7.498 7.498 0 0 0 10.363 2.26 7.501 7.501 0 0 0 2.26-10.364c-3.75-5.84-7.752-10.608-11.882-14.49 3.637-6.078 11.124-16.278 22.368-20.572zm139.875-51.544h-7.419v-7.419c0-4.143-3.357-7.5-7.5-7.5s-7.5 3.357-7.5 7.5v7.419h-7.42c-4.143 0-7.5 3.357-7.5 7.5s3.357 7.5 7.5 7.5h7.42v7.42c0 4.143 3.357 7.5 7.5 7.5s7.5-3.357 7.5-7.5v-7.42h7.419c4.143 0 7.5-3.357 7.5-7.5s-3.358-7.5-7.5-7.5zM119.644 144.186h7.42v7.419c0 4.143 3.357 7.5 7.5 7.5s7.5-3.357 7.5-7.5v-7.419h7.419c4.143 0 7.5-3.357 7.5-7.5s-3.357-7.5-7.5-7.5h-7.419v-7.42c0-4.143-3.357-7.5-7.5-7.5s-7.5 3.357-7.5 7.5v7.42h-7.42c-4.143 0-7.5 3.357-7.5 7.5s3.358 7.5 7.5 7.5zM71.688 282.153h7.42c4.143 0 7.5-3.357 7.5-7.5s-3.357-7.5-7.5-7.5h-7.42v-7.42c0-4.143-3.357-7.5-7.5-7.5a7.499 7.499 0 0 0-7.5 7.5v7.42h-7.419c-4.143 0-7.5 3.357-7.5 7.5s3.357 7.5 7.5 7.5h7.419v7.419c0 4.143 3.357 7.5 7.5 7.5s7.5-3.357 7.5-7.5v-7.419zm313.865-41.402a7.47 7.47 0 0 0 1.225-.101l51.009-8.44a7.5 7.5 0 0 0 4.079-12.703l-42.569-42.568a7.498 7.498 0 0 0-12.703 4.079l-8.439 51.009a7.502 7.502 0 0 0 7.398 8.724zm13.456-42.886l21.929 21.929-26.275 4.348 4.346-26.277zM107.835 232.21l51.009 8.44a7.505 7.505 0 0 0 6.529-2.095 7.506 7.506 0 0 0 2.096-6.528l-8.44-51.009a7.5 7.5 0 0 0-12.703-4.079l-42.568 42.568a7.503 7.503 0 0 0 4.077 12.703zm38.776-34.345l4.348 26.276-26.276-4.348 21.928-21.928z"/></svg>