<svg xmlns="http://www.w3.org/2000/svg" viewBox="0 0 512 512"><path d="M376.008 101.229c-14.937-7.444-32.03-5.742-44.952 2.956v-.003c-4.761 2.173-9.275-.092-10.394-5.181l-.009-.002c-.831-15.551-9.762-30.225-24.698-37.67-22.108-11.02-48.958-2.028-59.975 20.076-32.305 64.816 30.529 139.256 30.529 139.256s97.27 5.36 129.577-59.455c11.015-22.107 2.028-48.958-20.078-59.977zm-240.38 6.239v-.002c2.677 1.221 5.209-.055 5.838-2.91l.005-.001c1.365-25.599 36.059-32.945 47.555-9.881 18.145 36.402-17.147 78.21-17.147 78.21s-54.629 3.011-72.774-33.391c-11.465-23.001 15.215-46.37 36.523-32.025z" fill="#ff3e5a"/><path d="M257.268 81.405c6.104-12.246 17.069-20.457 29.393-23.481-19.869-4.894-41.172 4.403-50.681 23.481-32.305 64.816 30.529 139.256 30.529 139.256s8.308.455 20.865-.513c-5.416-6.644-60.854-77.051-30.106-138.743zm-125.046 24.151c-21.448-10.027-43.722 12.662-33.116 33.938 18.145 36.402 72.774 33.391 72.774 33.391s.37-.44 1.008-1.256c-57.008-8.513-68.159-53.227-40.666-66.073z" fill="#d82749"/><path d="M218.863 455.378h-87.177s-12.495-.407-13.946-13.082l-6.35-55.65 113.348-12.193 7.675 67.25c.69 7.442-3.588 13.675-13.55 13.675z" fill="#4ba7e0"/><path d="M132.759 384.347l-21.369 2.299 6.35 55.65c1.451 12.675 13.946 13.082 13.946 13.082h9.178l-8.105-71.031z" fill="#4b87dd"/><path d="M13.748 142.759c18.771-5.337 25.378 14.71 26 16.334l36.265 77.853s8.681-15.193 25.092-6.908c45.483 22.956 51.613 25.07 59.683 33.919h.002c33.412 38.078 29.009 33.841 43.121 81.183l-81.869 9.345c-.004-.005-11.827-14.275-11.83-14.281-6.495-7.282-12.114-9.313-50.681-28.777-6.143-3.479-18.98-12.599-23.402-29.923-.002-.008-.004-.014-.004-.02L.888 170.38c-.897-3.516-4.345-22.125 12.86-27.621z" fill="#f0a479"/><g fill="#ea976e"><path d="M79.546 300.093c-6.143-3.479-18.98-12.599-23.402-29.923-.002-.008-.004-.014-.004-.02L20.903 159.046c-.552-2.166-2.066-10.057.869-17.084-2.387-.254-5.052-.049-8.024.796-17.205 5.496-13.757 24.105-12.86 27.62l35.237 111.104c0 .006.002.012.004.02 4.422 17.324 17.258 26.443 23.402 29.923 38.948 19.657 44.266 21.585 50.681 28.777.003.006 11.826 14.276 11.83 14.281l27.28-3.114c-28.338-33.388-15.819-24.044-69.776-51.276z"/><path d="M123.72 275.511c-5.209-2.63-10.69-5.542-15.989-8.358-15.386-8.174-18.585-8.951-19.794-13.115-1.548-5.333 2.059-10.277 10.23-25.269-12.19-4.373-19.533 4.373-21.568 7.279l-.077.142c-7.028 11.815-6.888 28.782 10.056 37.335 27.897 14.08 29.695 16.613 33.655 16.613 8.067-.001 10.753-10.958 3.487-14.627z"/></g><path d="M221.784 348.564l3.365 29.478-113.265 12.927-3.364-29.478a6.453 6.453 0 0 1 5.677-7.144l100.448-11.464a6.453 6.453 0 0 1 7.139 5.681z" fill="#e8e8e8"/><path d="M129.142 352.642l-14.946 1.706a6.453 6.453 0 0 0-5.677 7.144l3.364 29.478 21.353-2.437c-.03-.274-4.094-35.891-4.094-35.891z" fill="#d1d3d3"/><path d="M279.583 441.734c-.192 4.701 1.077 13.643 13.554 13.643h87.176s12.496-.407 13.947-13.082l6.35-55.65-113.349-12.193-7.678 67.282z" fill="#4ba7e0"/><path d="M300.189 441.734l7.428-65.092-20.356-2.19-7.678 67.282c-.192 4.701 1.077 13.643 13.554 13.643h20.606c-12.477.001-13.746-8.942-13.554-13.643z" fill="#4b87dd"/><path d="M498.252 142.759c-18.77-5.337-25.378 14.71-26 16.334l-36.265 77.853s-8.681-15.193-25.092-6.908c-45.483 22.956-51.613 25.069-59.684 33.919h-.002c-33.413 38.078-29.009 33.841-43.121 81.183l81.869 9.345c9.71-11.72 13.15-18.144 26.065-24.664l36.446-18.394c6.143-3.479 18.979-12.599 23.401-29.923.002-.008.005-.014.005-.02l35.237-111.104c.898-3.516 4.346-22.125-12.859-27.621z" fill="#f0a479"/><path d="M371.816 253.267h.002s2.243-2.954 5.895-6.482c-10.113 5.104-18.867 8.801-26.501 17.172h-.002c-33.413 38.078-29.009 33.841-43.121 81.183l21.479 2.452c13.194-53.352 9.114-48.807 42.248-94.325zm16.464 22.244c10.11-5.103 21.224-11.262 30.18-15.782 4.63-2.337 5.363-4.861 5.603-5.691 1.56-5.371-1.92-10.023-10.229-25.269 12.19-4.373 19.533 4.373 21.568 7.279 3.774 6.931 5.681 14.562 3.554 22.121-1.276 4.533-4.659 10.877-13.533 15.356-21.686 10.944-29.853 16.613-33.655 16.613-8.068-.001-10.754-10.958-3.488-14.627z" fill="#ea976e"/><path d="M290.216 348.564l-3.365 29.478 113.265 12.927 3.365-29.478a6.453 6.453 0 0 0-5.677-7.144l-100.448-11.464a6.453 6.453 0 0 0-7.14 5.681z" fill="#e8e8e8"/><path d="M307.867 374.453c3.192-27.964 2.66-27.666 4.896-29.811l-15.406-1.758a6.452 6.452 0 0 0-7.141 5.681l-3.365 29.478 20.341 2.322.675-5.912z" fill="#d1d3d3"/></svg>