<svg xmlns="http://www.w3.org/2000/svg" viewBox="0 0 512 512"><path d="M424.699 299.116c-48.137 0-87.299-39.162-87.299-87.299 0-48.138 39.162-87.301 87.299-87.301 48.138 0 87.301 39.163 87.301 87.301 0 48.137-39.163 87.299-87.301 87.299zm0-144.599c-31.595 0-57.299 25.705-57.299 57.301 0 31.595 25.704 57.299 57.299 57.299 31.596 0 57.301-25.704 57.301-57.299 0-31.596-25.705-57.301-57.301-57.301z" fill="#ff73b0"/><path d="M424.701 124.517h-.001v30h.001c31.595 0 57.299 25.705 57.299 57.301 0 31.595-25.704 57.299-57.299 57.299h-.001v30h.001c48.137 0 87.299-39.162 87.299-87.299 0-48.138-39.162-87.301-87.299-87.301z" fill="#fd0f81"/><path d="M340.35 387.483c-48.137 0-87.299-39.162-87.299-87.299 0-48.138 39.162-87.301 87.299-87.301 48.138 0 87.301 39.163 87.301 87.301-.001 48.137-39.164 87.299-87.301 87.299zm0-144.599c-31.595 0-57.299 25.705-57.299 57.301 0 31.595 25.704 57.299 57.299 57.299 31.596 0 57.301-25.704 57.301-57.299-.001-31.596-25.706-57.301-57.301-57.301z" fill="#91dc5a"/><path d="M340.352 212.884h-.001v30h.001c31.595 0 57.299 25.705 57.299 57.301 0 31.595-25.704 57.299-57.299 57.299h-.001v30h.001c48.137 0 87.299-39.162 87.299-87.299-.001-48.138-39.163-87.301-87.299-87.301z" fill="#4cba68"/><path d="M256 299.116c-48.138 0-87.301-39.162-87.301-87.299 0-48.138 39.163-87.301 87.301-87.301s87.301 39.163 87.301 87.301c0 48.137-39.163 87.299-87.301 87.299zm0-144.599c-31.596 0-57.301 25.705-57.301 57.301 0 31.595 25.705 57.299 57.301 57.299s57.301-25.704 57.301-57.299c0-31.596-25.705-57.301-57.301-57.301z" fill="#007175"/><path d="M256.002 124.517h-.001v30h.001c31.595 0 57.299 25.705 57.299 57.301 0 31.595-25.704 57.299-57.299 57.299h-.001v30h.001c48.137 0 87.299-39.162 87.299-87.299 0-48.138-39.162-87.301-87.299-87.301z" fill="#005457"/><path d="M171.65 387.483c-48.138 0-87.301-39.162-87.301-87.299 0-48.138 39.163-87.301 87.301-87.301 48.137 0 87.299 39.163 87.299 87.301 0 48.137-39.162 87.299-87.299 87.299zm0-144.599c-31.596 0-57.301 25.705-57.301 57.301 0 31.595 25.705 57.299 57.301 57.299 31.595 0 57.299-25.704 57.299-57.299 0-31.596-25.704-57.301-57.299-57.301z" fill="#ffcd00"/><path d="M171.65 212.884l-.001 30h.001c31.595 0 57.299 25.705 57.299 57.301 0 31.595-25.704 57.299-57.299 57.299h-.001v30h.001c48.137 0 87.299-39.162 87.299-87.299 0-48.138-39.162-87.301-87.299-87.301z" fill="#ff9811"/><path d="M87.301 299.116C39.163 299.116 0 259.954 0 211.817c0-48.138 39.163-87.301 87.301-87.301 48.137 0 87.299 39.163 87.299 87.301 0 48.137-39.163 87.299-87.299 87.299zm0-144.599c-31.596 0-57.301 25.705-57.301 57.3s25.705 57.299 57.301 57.299c31.595 0 57.299-25.704 57.299-57.299s-25.705-57.3-57.299-57.3z" fill="#00dbcd"/><path d="M87.301 124.517l-.001 30h.001c31.595 0 57.299 25.705 57.299 57.301 0 31.595-25.704 57.299-57.299 57.299H87.3v30h.001c48.137 0 87.299-39.162 87.299-87.299 0-48.138-39.163-87.301-87.299-87.301z" fill="#00b6bd"/></svg>