<svg fill="#697391" xmlns="http://www.w3.org/2000/svg" viewBox="0 0 267.102 267.102"><path d="M260.102 69.043h-81.551V54.699c0-8.562-6.966-15.528-15.527-15.528h-58.945c-8.562 0-15.527 6.966-15.527 15.528v14.344H7a7 7 0 0 0-7 7v144.888a7 7 0 0 0 7 7h253.102a7 7 0 0 0 7-7V76.043a7 7 0 0 0-7-7zm-7 14v2.218l-111.345 64.918a19.616 19.616 0 0 1-20.061-.13L14 85.414v-2.371h239.102zM14 101.436l100.465 60.601a33.596 33.596 0 0 0 34.368.222l104.269-61.073V213.93H14V101.436zm88.551-46.737a1.53 1.53 0 0 1 1.527-1.528h58.945a1.53 1.53 0 0 1 1.527 1.528v14.344h-62V54.699z"/></svg>