<?xml version="1.0" encoding="iso-8859-1"?>
<!-- Generator: Adobe Illustrator 16.0.0, SVG Export Plug-In . SVG Version: 6.00 Build 0)  -->
<!DOCTYPE svg PUBLIC "-//W3C//DTD SVG 1.1//EN" "http://www.w3.org/Graphics/SVG/1.1/DTD/svg11.dtd">
<svg version="1.1" id="Capa_1" xmlns="http://www.w3.org/2000/svg" xmlns:xlink="http://www.w3.org/1999/xlink" x="0px" y="0px"
	 width="51px" height="51px" viewBox="0 0 612 612" style="enable-background:new 0 0 612 612;"
     xml:space="preserve">
<g>
	<path d="M600.388,112.114c-7.714-7.876-17.246-11.938-28.525-11.938H420.269V50.088c0-10.282-7.954-18.576-18.243-18.576h-1.989
		h-1.988H213.952h-1.996h-1.989c-10.282,0-18.576,8.294-18.576,18.576v50.087H40.131c-11.273,0-20.812,4.062-28.525,11.938
		C4.062,119.827,0,129.366,0,140.313V540.35c0,10.948,3.892,20.649,11.605,28.526c7.551,7.713,17.252,11.612,28.525,11.612h531.731
		c11.279,0,20.981-3.899,28.525-11.612C608.101,560.999,612,551.298,612,540.35V140.313
		C612,129.366,607.938,119.827,600.388,112.114z M228.211,68.331h155.57v31.844h-155.57V68.331z M575.181,540.35
		c0,2.321-0.998,3.319-3.318,3.319H40.131c-1.656,0-3.644-1.988-3.644-3.319V270.67h222.246v8.959
		c0,10.282,7.961,18.243,18.243,18.243h57.716c10.282,0,18.576-7.961,18.576-18.243v-8.959h221.913V540.35z M575.181,234.184H36.487
		v-93.87c0-2.321,1.323-3.319,3.644-3.319h531.731c2.32,0,3.318,0.998,3.318,3.319V234.184z"/>
</g>
<g>
</g>
<g>
</g>
<g>
</g>
<g>
</g>
<g>
</g>
<g>
</g>
<g>
</g>
<g>
</g>
<g>
</g>
<g>
</g>
<g>
</g>
<g>
</g>
<g>
</g>
<g>
</g>
<g>
</g>
</svg>
