<svg xmlns="http://www.w3.org/2000/svg" width="51.4" height="51.4" viewBox="0 0 516.4 516.4"><path d="M344.199 143.45c0-42.1-34.398-76.5-76.5-76.5-42.099 0-76.499 34.4-76.499 76.5h38.2c0-21 17.2-38.2 38.2-38.2 21 0 38.201 17.2 38.201 38.2s-17.201 38.2-38.201 38.2H38.2v38.2h229.499c42.102.2 76.5-34.3 76.5-76.4z"/><path d="M439.801 143.45c-42.102 0-76.5 34.4-76.5 76.5H401.6c0-21 17.201-38.2 38.201-38.2S478 198.95 478 219.95s-17.1 38.3-38.199 38.3H0v38.2h439.9c42.1 0 76.5-34.4 76.5-76.5s-34.5-76.5-76.599-76.5zM382.5 334.75H114.7v38.2h267.8c11.5 0 19.1 7.6 19.1 19.1s-7.6 19.101-19.1 19.101-19.1-7.601-19.1-19.101h-38.201c0 30.601 24.9 57.4 57.4 57.4s57.4-24.9 57.4-57.4-24.999-57.3-57.499-57.3z"/></svg>