<svg xmlns="http://www.w3.org/2000/svg" width="512" height="512"><path d="M256 512c141.385 0 256-114.615 256-256S397.385 0 256 0 0 114.615 0 256s114.615 256 256 256zm0-464c114.875 0 208 93.125 208 208s-93.125 208-208 208S48 370.875 48 256 141.125 48 256 48zm0 251.38c57.975 0 113.115-15.403 160-42.46C408.713 346.139 339.436 416 256 416c-83.434 0-152.711-69.936-160-159.152 46.885 27.056 102.025 42.532 160 42.532zM128 176c0 26.51 14.327 48 32 48s32-21.49 32-48-14.327-48-32-48-32 21.49-32 48zm192 0c0 26.51 14.326 48 32 48s32-21.49 32-48-14.326-48-32-48-32 21.49-32 48z" fill="#006DF0"/></svg>