<svg xmlns="http://www.w3.org/2000/svg" width="512" height="512" viewBox="0 0 128 128"><path d="M8 112V16c0-4.414 3.594-8 8-8h80c4.414 0 8 3.586 8 8v47.031l8-8V16c0-8.836-7.164-16-16-16H16C7.164 0 0 7.164 0 16v96c0 8.836 7.164 16 16 16h44v-8H16c-4.406 0-8-3.586-8-8zm80-88H24v8h64v-8zm0 16H24v8h64v-8zm0 16H24v8h64v-8zM24 80h32v-8H24v8zm101.656-8L120 66.344c-1.563-1.563-3.609-2.344-5.656-2.344s-4.094.781-5.656 2.344l-34.344 34.344C72.781 102.25 68 108.293 68 110.34L64 128l17.656-4s8.094-4.781 9.656-6.344l34.344-34.344a7.996 7.996 0 0 0 0-11.312zm-37.164 42.82c-.453.43-2.02 1.488-3.934 2.707l-10.363-10.363c1.063-1.457 2.246-2.922 2.977-3.648l25.859-25.859 11.313 11.313-25.852 25.85z" fill="#006DF0"/></svg>