<svg xmlns="http://www.w3.org/2000/svg" width="512" height="512" viewBox="0 0 94.006 94.005"><path d="M94.006 35.071c0 2.673-.438 5.31-1.288 7.845-3.993 18.067-38.521 39.923-39.99 40.853a2.834 2.834 0 0 1-1.499.434 2.711 2.711 0 0 1-1.505-.434c-.395-.257-10.123-6.396-19.986-14.834a2.812 2.812 0 0 1-.314-3.95 2.827 2.827 0 0 1 3.952-.317c7.352 6.281 14.782 11.359 17.867 13.405 10.37-6.761 33.263-23.962 36.069-36.648.733-2.241 1.064-4.279 1.064-6.348a19.777 19.777 0 0 0-10.235-17.319c-8.063-4.474-18.856-2.411-24.755 4.7-1.06 1.284-3.24 1.284-4.32 0-5.917-7.116-16.702-9.163-24.754-4.708a19.77 19.77 0 0 0-10.255 17.316c0 2.055.348 4.102.996 6.079.416 1.85 1.212 3.659 2.225 5.536h16.356l5.617-12.909c.481-1.105 1.63-1.8 2.812-1.676a2.784 2.784 0 0 1 2.476 2.147l4.135 17.482 5.349-8.771a2.792 2.792 0 0 1 2.391-1.342h10.151a2.8 2.8 0 0 1 2.801 2.803 2.805 2.805 0 0 1-2.801 2.802h-8.578l-8.058 13.236a2.794 2.794 0 0 1-5.11-.803L41.04 43.726l-2.986 6.873a2.791 2.791 0 0 1-2.572 1.685H2.802A2.812 2.812 0 0 1 0 49.482a2.813 2.813 0 0 1 2.802-2.802h8.217c-.583-1.391-1.054-2.741-1.346-4.047-.782-2.268-1.205-4.909-1.205-7.568A25.368 25.368 0 0 1 21.615 12.84c9.406-5.203 21.853-3.567 29.626 3.737 7.752-7.305 20.19-8.94 29.612-3.737a25.389 25.389 0 0 1 13.153 22.231z" fill="#006DF0"/></svg>