<svg xmlns="http://www.w3.org/2000/svg" viewBox="0 0 469.863 469.863" width="512" height="512"><g fill="#006DF0"><path d="M407.82 260.136c-7.237-8.363-15.384-16.795-24.307-25.204 8.923-8.409 17.07-16.841 24.307-25.204 15.082-17.429 25.56-33.779 31.143-48.597 6.455-17.133 6.262-31.824-.574-43.665s-19.462-19.354-37.527-22.33c-15.626-2.574-35.024-1.675-57.658 2.672-10.861 2.086-22.237 4.925-33.981 8.448-2.568-10.863-5.478-21.17-8.713-30.815 5.027-4.79 8.169-11.54 8.169-19.015 0-14.49-11.789-26.278-26.278-26.278-.95 0-1.887.053-2.811.152-2.129-3.23-4.313-6.23-6.556-8.965C261.423 7.178 248.604 0 234.931 0S208.44 7.178 196.83 21.335c-10.041 12.244-18.962 29.494-26.515 51.269-3.624 10.449-6.853 21.72-9.674 33.652-11.744-3.523-23.12-6.363-33.981-8.448-22.635-4.347-42.034-5.246-57.658-2.672-18.065 2.976-30.691 10.489-37.527 22.33s-7.029 26.532-.574 43.665c5.583 14.818 16.061 31.168 31.143 48.597 7.237 8.363 15.384 16.795 24.307 25.204a369.896 369.896 0 0 0-15.189 15.135 26.198 26.198 0 0 0-7.762-1.171c-14.49 0-26.278 11.789-26.278 26.278 0 4.938 1.371 9.561 3.749 13.511-4.221 6.944-7.555 13.64-9.97 20.048-6.456 17.133-6.262 31.823.574 43.664s19.462 19.354 37.527 22.33c5.798.955 12.115 1.432 18.925 1.432 11.541 0 24.498-1.37 38.732-4.104 10.861-2.086 22.237-4.925 33.981-8.448 2.821 11.933 6.05 23.204 9.674 33.653 7.553 21.775 16.474 39.024 26.515 51.269 11.61 14.157 24.429 21.335 38.102 21.335s26.492-7.178 38.102-21.335c10.041-12.244 18.962-29.494 26.516-51.269 3.624-10.449 6.853-21.72 9.674-33.653 10.344 3.103 20.401 5.675 30.072 7.668 2.688 11.654 13.142 20.372 25.601 20.372 10.723 0 19.961-6.459 24.042-15.688 4.18-.218 8.172-.614 11.923-1.232 18.065-2.976 30.691-10.489 37.527-22.33s7.029-26.531.574-43.664c-5.582-14.817-16.06-31.168-31.142-48.597zm-60.845-142.687c38.507-7.395 66.204-3.649 74.093 10.017 7.89 13.666-2.716 39.526-28.372 69.175-7.133 8.243-15.208 16.569-24.098 24.88-14.387-12.364-30.353-24.571-47.525-36.323-1.592-20.747-4.18-40.677-7.694-59.319 11.643-3.544 22.891-6.374 33.596-8.43zm-78.033 176.39a640.324 640.324 0 0 1-34.01 18.302 639.934 639.934 0 0 1-34.01-18.302 639.729 639.729 0 0 1-32.855-20.303c-.763-12.614-1.155-25.518-1.155-38.605s.392-25.991 1.155-38.605a640.43 640.43 0 0 1 32.855-20.303 640.324 640.324 0 0 1 34.01-18.302 639.934 639.934 0 0 1 34.01 18.302 639.729 639.729 0 0 1 32.855 20.303c.763 12.614 1.155 25.518 1.155 38.605s-.392 25.991-1.155 38.605a638.598 638.598 0 0 1-32.855 20.303zm30.804 4.795c-1.399 13.505-3.246 26.554-5.518 39.003-11.916-4.257-24.141-9.182-36.536-14.723a668.023 668.023 0 0 0 21.25-11.754 664.375 664.375 0 0 0 20.804-12.526zm-87.575 24.28c-12.395 5.541-24.62 10.466-36.536 14.723-2.271-12.448-4.119-25.498-5.518-39.003a666.7 666.7 0 0 0 20.804 12.526c7.072 4.082 14.163 8 21.25 11.754zm-64.815-63.703c-10.996-7.964-21.373-16.089-31.018-24.28 9.645-8.191 20.023-16.316 31.018-24.28-.293 8.015-.445 16.115-.445 24.28s.153 16.266.445 24.28zm22.761-87.982c1.399-13.504 3.246-26.554 5.518-39.003 11.916 4.257 24.141 9.182 36.536 14.723a668.023 668.023 0 0 0-21.25 11.754 668.642 668.642 0 0 0-20.804 12.526zm87.575-24.28c12.395-5.541 24.62-10.466 36.536-14.723 2.271 12.448 4.119 25.498 5.518 39.003a666.7 666.7 0 0 0-20.804-12.526c-7.071-4.082-14.162-8-21.25-11.754zm64.815 63.703c10.996 7.964 21.373 16.089 31.018 24.28-9.645 8.191-20.023 16.316-31.018 24.28.293-8.015.445-16.115.445-24.28s-.152-16.265-.445-24.28zM189.21 79.158C202.059 42.115 219.151 20 234.931 20c8.926 0 18.272 7.081 27.032 19.932a26.146 26.146 0 0 0-5.842 16.494c0 14.305 11.491 25.969 25.727 26.265 3.088 9.303 5.861 19.264 8.302 29.777-17.901 6.278-36.455 14.001-55.219 22.996-18.764-8.995-37.318-16.718-55.219-22.996 2.753-11.854 5.926-23.011 9.498-33.31zM77.167 196.641c-25.656-29.649-36.262-55.509-28.372-69.175 5.222-9.045 19.12-13.744 39.087-13.744 10.2 0 21.986 1.227 35.006 3.727 10.705 2.056 21.953 4.886 33.596 8.429-3.514 18.642-6.102 38.572-7.694 59.319-17.172 11.752-33.137 23.959-47.525 36.323-8.889-8.31-16.965-16.636-24.098-24.879zm45.722 155.773c-38.504 7.396-66.203 3.65-74.093-10.017-5.323-9.219-2.216-23.992 8.237-41.729 2.04.51 4.171.784 6.367.784 14.49 0 26.278-11.789 26.278-26.279 0-4.45-1.116-8.643-3.076-12.321a355.776 355.776 0 0 1 14.664-14.511c14.387 12.364 30.353 24.57 47.524 36.323 1.592 20.748 4.18 40.677 7.694 59.319-11.642 3.545-22.89 6.375-33.595 8.431zm157.764 38.291c-12.849 37.043-29.941 59.158-45.721 59.158s-32.872-22.115-45.721-59.158c-3.572-10.299-6.745-21.455-9.498-33.31 17.901-6.278 36.455-14.001 55.219-22.996 18.764 8.995 37.318 16.718 55.219 22.996-2.753 11.855-5.926 23.011-9.498 33.31zm140.415-48.308c-4.547 7.876-15.683 12.45-31.666 13.502-3.809-9.823-13.354-16.81-24.507-16.81-9.414 0-17.684 4.979-22.325 12.439-9.373-1.957-19.134-4.483-29.191-7.544 3.514-18.642 6.102-38.572 7.694-59.319 17.172-11.752 33.137-23.958 47.524-36.323 8.89 8.311 16.965 16.637 24.098 24.88 25.657 29.65 36.263 55.509 28.373 69.175z"/><path d="M234.931 193.433c-22.882 0-41.498 18.616-41.498 41.499s18.616 41.499 41.498 41.499 41.499-18.616 41.499-41.499-18.616-41.499-41.499-41.499zm0 62.997c-11.854 0-21.498-9.644-21.498-21.499s9.644-21.499 21.498-21.499c11.854 0 21.499 9.644 21.499 21.499s-9.644 21.499-21.499 21.499z"/></g></svg>