<svg xmlns="http://www.w3.org/2000/svg" width="512" height="512" viewBox="0 0 478.125 478.125"><path d="M239.062 0C107.1 0 0 107.1 0 239.062c0 131.963 107.1 239.062 239.062 239.062 131.963 0 239.062-107.1 239.062-239.062C478.125 107.1 371.025 0 239.062 0zm9.563 87.975l66.938-55.462c38.25 15.3 72.675 40.162 97.537 72.675l-28.688 74.587-72.675 30.6-63.112-49.725V87.975zm-86.063-55.462L229.5 87.975v72.675l-63.112 51.638-72.675-30.6-28.688-76.5c24.863-32.513 57.375-57.376 97.537-72.675zM59.288 365.287c-22.95-32.512-38.25-72.675-40.163-116.662L91.8 200.812l66.938 28.688 24.863 82.237-47.812 49.726-76.501 3.824zm242.887 84.151C283.05 455.175 262.013 459 239.062 459s-42.075-3.825-63.112-9.562l-21.038-80.325 43.987-43.987h78.413l45.9 45.9-21.037 78.412zm36.338-87.975l-45.9-47.812 24.862-84.15 66.938-28.688L459 248.625c-1.912 43.987-17.213 84.15-40.162 116.662l-80.325-3.824z" fill="#006DF0"/></svg>